<?xml version="1.0" encoding="utf-8" standalone="no"?>
<!DOCTYPE svg PUBLIC "-//W3C//DTD SVG 1.1//EN"
  "http://www.w3.org/Graphics/SVG/1.1/DTD/svg11.dtd">
<!-- Created with matplotlib (https://matplotlib.org/) -->
<svg height="345.6pt" version="1.1" viewBox="0 0 460.8 345.6" width="460.8pt" xmlns="http://www.w3.org/2000/svg" xmlns:xlink="http://www.w3.org/1999/xlink">
 <defs>
  <style type="text/css">
*{stroke-linecap:butt;stroke-linejoin:round;}
  </style>
 </defs>
 <g id="figure_1">
  <g id="patch_1">
   <path d="M 0 345.6 
L 460.8 345.6 
L 460.8 0 
L 0 0 
z
" style="fill:#ffffff;"/>
  </g>
  <g id="axes_1">
   <g id="patch_2">
    <path d="M 57.6 178.135273 
L 414.72 178.135273 
L 414.72 170.920727 
L 57.6 170.920727 
z
" style="fill:#ffffff;"/>
   </g>
   <g id="LineCollection_1">
    <path clip-path="url(#p7147c33c07)" d="M 73.832727 174.528 
L 77.112066 174.528 
" style="fill:none;stroke:#000000;stroke-width:0.327934;"/>
    <path clip-path="url(#p7147c33c07)" d="M 77.112066 174.528 
L 80.391405 174.528 
" style="fill:none;stroke:#000000;stroke-width:0.327934;"/>
    <path clip-path="url(#p7147c33c07)" d="M 80.391405 174.528 
L 83.670744 174.528 
" style="fill:none;stroke:#000000;stroke-width:0.327934;"/>
    <path clip-path="url(#p7147c33c07)" d="M 83.670744 174.528 
L 86.950083 174.528 
" style="fill:none;stroke:#000000;stroke-width:0.327934;"/>
    <path clip-path="url(#p7147c33c07)" d="M 86.950083 174.528 
L 90.229421 174.528 
" style="fill:none;stroke:#000000;stroke-width:0.327934;"/>
    <path clip-path="url(#p7147c33c07)" d="M 90.229421 174.528 
L 93.50876 174.528 
" style="fill:none;stroke:#000000;stroke-width:0.327934;"/>
    <path clip-path="url(#p7147c33c07)" d="M 93.50876 174.528 
L 96.788099 174.528 
" style="fill:none;stroke:#000000;stroke-width:0.327934;"/>
    <path clip-path="url(#p7147c33c07)" d="M 96.788099 174.528 
L 100.067438 174.528 
" style="fill:none;stroke:#000000;stroke-width:0.327934;"/>
    <path clip-path="url(#p7147c33c07)" d="M 100.067438 174.528 
L 103.346777 174.528 
" style="fill:none;stroke:#000000;stroke-width:0.327934;"/>
    <path clip-path="url(#p7147c33c07)" d="M 103.346777 174.528 
L 106.626116 174.528 
" style="fill:none;stroke:#000000;stroke-width:0.327934;"/>
    <path clip-path="url(#p7147c33c07)" d="M 106.626116 174.528 
L 109.905455 174.528 
" style="fill:none;stroke:#000000;stroke-width:0.327934;"/>
    <path clip-path="url(#p7147c33c07)" d="M 109.905455 174.528 
L 113.184793 174.528 
" style="fill:none;stroke:#000000;stroke-width:0.327934;"/>
    <path clip-path="url(#p7147c33c07)" d="M 113.184793 174.528 
L 116.464132 174.528 
" style="fill:none;stroke:#000000;stroke-width:0.327934;"/>
    <path clip-path="url(#p7147c33c07)" d="M 116.464132 174.528 
L 119.743471 174.528 
" style="fill:none;stroke:#000000;stroke-width:0.327934;"/>
    <path clip-path="url(#p7147c33c07)" d="M 119.743471 174.528 
L 123.02281 174.528 
" style="fill:none;stroke:#000000;stroke-width:0.327934;"/>
    <path clip-path="url(#p7147c33c07)" d="M 123.02281 174.528 
L 126.302149 174.528 
" style="fill:none;stroke:#000000;stroke-width:0.327934;"/>
    <path clip-path="url(#p7147c33c07)" d="M 126.302149 174.528 
L 129.581488 174.528 
" style="fill:none;stroke:#000000;stroke-width:0.327934;"/>
    <path clip-path="url(#p7147c33c07)" d="M 129.581488 174.528 
L 132.860826 174.528 
" style="fill:none;stroke:#000000;stroke-width:0.327934;"/>
    <path clip-path="url(#p7147c33c07)" d="M 132.860826 174.528 
L 136.140165 174.528 
" style="fill:none;stroke:#000000;stroke-width:0.327934;"/>
    <path clip-path="url(#p7147c33c07)" d="M 136.140165 174.528 
L 139.419504 174.528 
" style="fill:none;stroke:#000000;stroke-width:0.327934;"/>
    <path clip-path="url(#p7147c33c07)" d="M 139.419504 174.528 
L 142.698843 174.528 
" style="fill:none;stroke:#000000;stroke-width:0.327934;"/>
    <path clip-path="url(#p7147c33c07)" d="M 142.698843 174.528 
L 145.978182 174.528 
" style="fill:none;stroke:#000000;stroke-width:0.327934;"/>
    <path clip-path="url(#p7147c33c07)" d="M 145.978182 174.528 
L 149.257521 174.528 
" style="fill:none;stroke:#000000;stroke-width:0.327934;"/>
    <path clip-path="url(#p7147c33c07)" d="M 149.257521 174.528 
L 152.53686 174.528 
" style="fill:none;stroke:#000000;stroke-width:0.327934;"/>
    <path clip-path="url(#p7147c33c07)" d="M 152.53686 174.528 
L 155.816198 174.528 
" style="fill:none;stroke:#000000;stroke-width:0.327934;"/>
    <path clip-path="url(#p7147c33c07)" d="M 155.816198 174.528 
L 159.095537 174.528 
" style="fill:none;stroke:#000000;stroke-width:0.327934;"/>
    <path clip-path="url(#p7147c33c07)" d="M 159.095537 174.528 
L 162.374876 174.528 
" style="fill:none;stroke:#000000;stroke-width:0.327934;"/>
    <path clip-path="url(#p7147c33c07)" d="M 162.374876 174.528 
L 165.654215 174.528 
" style="fill:none;stroke:#000000;stroke-width:0.327934;"/>
    <path clip-path="url(#p7147c33c07)" d="M 165.654215 174.528 
L 168.933554 174.528 
" style="fill:none;stroke:#000000;stroke-width:0.327934;"/>
    <path clip-path="url(#p7147c33c07)" d="M 168.933554 174.528 
L 172.212893 174.528 
" style="fill:none;stroke:#000000;stroke-width:0.327934;"/>
    <path clip-path="url(#p7147c33c07)" d="M 172.212893 174.528 
L 175.492231 174.528 
" style="fill:none;stroke:#000000;stroke-width:0.327934;"/>
    <path clip-path="url(#p7147c33c07)" d="M 175.492231 174.528 
L 178.77157 174.528 
" style="fill:none;stroke:#000000;stroke-width:0.327934;"/>
    <path clip-path="url(#p7147c33c07)" d="M 178.77157 174.528 
L 182.050909 174.528 
" style="fill:none;stroke:#000000;stroke-width:0.327934;"/>
    <path clip-path="url(#p7147c33c07)" d="M 182.050909 174.528 
L 185.330248 174.528 
" style="fill:none;stroke:#000000;stroke-width:0.327934;"/>
    <path clip-path="url(#p7147c33c07)" d="M 185.330248 174.528 
L 188.609587 174.528 
" style="fill:none;stroke:#000000;stroke-width:0.327934;"/>
    <path clip-path="url(#p7147c33c07)" d="M 188.609587 174.528 
L 191.888926 174.528 
" style="fill:none;stroke:#000000;stroke-width:0.327934;"/>
    <path clip-path="url(#p7147c33c07)" d="M 191.888926 174.528 
L 195.168264 174.528 
" style="fill:none;stroke:#000000;stroke-width:0.327934;"/>
    <path clip-path="url(#p7147c33c07)" d="M 195.168264 174.528 
L 198.447603 174.528 
" style="fill:none;stroke:#000000;stroke-width:0.327934;"/>
    <path clip-path="url(#p7147c33c07)" d="M 198.447603 174.528 
L 201.726942 174.528 
" style="fill:none;stroke:#000000;stroke-width:0.327934;"/>
    <path clip-path="url(#p7147c33c07)" d="M 201.726942 174.528 
L 205.006281 174.528 
" style="fill:none;stroke:#000000;stroke-width:0.327934;"/>
    <path clip-path="url(#p7147c33c07)" d="M 205.006281 174.528 
L 208.28562 174.528 
" style="fill:none;stroke:#000000;stroke-width:0.327934;"/>
    <path clip-path="url(#p7147c33c07)" d="M 208.28562 174.528 
L 211.564959 174.528 
" style="fill:none;stroke:#000000;stroke-width:0.327934;"/>
    <path clip-path="url(#p7147c33c07)" d="M 211.564959 174.528 
L 214.844298 174.528 
" style="fill:none;stroke:#000000;stroke-width:0.327934;"/>
    <path clip-path="url(#p7147c33c07)" d="M 214.844298 174.528 
L 218.123636 174.528 
" style="fill:none;stroke:#000000;stroke-width:0.327934;"/>
    <path clip-path="url(#p7147c33c07)" d="M 218.123636 174.528 
L 221.402975 174.528 
" style="fill:none;stroke:#000000;stroke-width:0.327934;"/>
    <path clip-path="url(#p7147c33c07)" d="M 221.402975 174.528 
L 224.682314 174.528 
" style="fill:none;stroke:#000000;stroke-width:0.327934;"/>
    <path clip-path="url(#p7147c33c07)" d="M 224.682314 174.528 
L 227.961653 174.528 
" style="fill:none;stroke:#000000;stroke-width:0.327934;"/>
    <path clip-path="url(#p7147c33c07)" d="M 227.961653 174.528 
L 231.240992 174.528 
" style="fill:none;stroke:#000000;stroke-width:0.327934;"/>
    <path clip-path="url(#p7147c33c07)" d="M 231.240992 174.528 
L 234.520331 174.528 
" style="fill:none;stroke:#000000;stroke-width:0.327934;"/>
    <path clip-path="url(#p7147c33c07)" d="M 234.520331 174.528 
L 237.799669 174.528 
" style="fill:none;stroke:#000000;stroke-width:0.327934;"/>
    <path clip-path="url(#p7147c33c07)" d="M 237.799669 174.528 
L 241.079008 174.528 
" style="fill:none;stroke:#000000;stroke-width:0.327934;"/>
    <path clip-path="url(#p7147c33c07)" d="M 241.079008 174.528 
L 244.358347 174.528 
" style="fill:none;stroke:#000000;stroke-width:0.327934;"/>
    <path clip-path="url(#p7147c33c07)" d="M 244.358347 174.528 
L 247.637686 174.528 
" style="fill:none;stroke:#000000;stroke-width:0.327934;"/>
    <path clip-path="url(#p7147c33c07)" d="M 247.637686 174.528 
L 250.917025 174.528 
" style="fill:none;stroke:#000000;stroke-width:0.327934;"/>
    <path clip-path="url(#p7147c33c07)" d="M 250.917025 174.528 
L 254.196364 174.528 
" style="fill:none;stroke:#000000;stroke-width:0.327934;"/>
    <path clip-path="url(#p7147c33c07)" d="M 254.196364 174.528 
L 257.475702 174.528 
" style="fill:none;stroke:#000000;stroke-width:0.327934;"/>
    <path clip-path="url(#p7147c33c07)" d="M 257.475702 174.528 
L 260.755041 174.528 
" style="fill:none;stroke:#000000;stroke-width:0.327934;"/>
    <path clip-path="url(#p7147c33c07)" d="M 260.755041 174.528 
L 264.03438 174.528 
" style="fill:none;stroke:#000000;stroke-width:0.327934;"/>
    <path clip-path="url(#p7147c33c07)" d="M 264.03438 174.528 
L 267.313719 174.528 
" style="fill:none;stroke:#000000;stroke-width:0.327934;"/>
    <path clip-path="url(#p7147c33c07)" d="M 267.313719 174.528 
L 270.593058 174.528 
" style="fill:none;stroke:#000000;stroke-width:0.327934;"/>
    <path clip-path="url(#p7147c33c07)" d="M 270.593058 174.528 
L 273.872397 174.528 
" style="fill:none;stroke:#000000;stroke-width:0.327934;"/>
    <path clip-path="url(#p7147c33c07)" d="M 273.872397 174.528 
L 277.151736 174.528 
" style="fill:none;stroke:#000000;stroke-width:0.327934;"/>
    <path clip-path="url(#p7147c33c07)" d="M 277.151736 174.528 
L 280.431074 174.528 
" style="fill:none;stroke:#000000;stroke-width:0.327934;"/>
    <path clip-path="url(#p7147c33c07)" d="M 280.431074 174.528 
L 283.710413 174.528 
" style="fill:none;stroke:#000000;stroke-width:0.327934;"/>
    <path clip-path="url(#p7147c33c07)" d="M 283.710413 174.528 
L 286.989752 174.528 
" style="fill:none;stroke:#000000;stroke-width:0.327934;"/>
    <path clip-path="url(#p7147c33c07)" d="M 286.989752 174.528 
L 290.269091 174.528 
" style="fill:none;stroke:#000000;stroke-width:0.327934;"/>
    <path clip-path="url(#p7147c33c07)" d="M 290.269091 174.528 
L 293.54843 174.528 
" style="fill:none;stroke:#000000;stroke-width:0.327934;"/>
    <path clip-path="url(#p7147c33c07)" d="M 293.54843 174.528 
L 296.827769 174.528 
" style="fill:none;stroke:#000000;stroke-width:0.327934;"/>
    <path clip-path="url(#p7147c33c07)" d="M 296.827769 174.528 
L 300.107107 174.528 
" style="fill:none;stroke:#000000;stroke-width:0.327934;"/>
    <path clip-path="url(#p7147c33c07)" d="M 300.107107 174.528 
L 303.386446 174.528 
" style="fill:none;stroke:#000000;stroke-width:0.327934;"/>
    <path clip-path="url(#p7147c33c07)" d="M 303.386446 174.528 
L 306.665785 174.528 
" style="fill:none;stroke:#000000;stroke-width:0.327934;"/>
    <path clip-path="url(#p7147c33c07)" d="M 306.665785 174.528 
L 309.945124 174.528 
" style="fill:none;stroke:#000000;stroke-width:0.327934;"/>
    <path clip-path="url(#p7147c33c07)" d="M 309.945124 174.528 
L 313.224463 174.528 
" style="fill:none;stroke:#000000;stroke-width:0.327934;"/>
    <path clip-path="url(#p7147c33c07)" d="M 313.224463 174.528 
L 316.503802 174.528 
" style="fill:none;stroke:#000000;stroke-width:0.327934;"/>
    <path clip-path="url(#p7147c33c07)" d="M 316.503802 174.528 
L 319.78314 174.528 
" style="fill:none;stroke:#000000;stroke-width:0.327934;"/>
    <path clip-path="url(#p7147c33c07)" d="M 319.78314 174.528 
L 323.062479 174.528 
" style="fill:none;stroke:#000000;stroke-width:0.327934;"/>
    <path clip-path="url(#p7147c33c07)" d="M 323.062479 174.528 
L 326.341818 174.528 
" style="fill:none;stroke:#000000;stroke-width:0.327934;"/>
    <path clip-path="url(#p7147c33c07)" d="M 326.341818 174.528 
L 329.621157 174.528 
" style="fill:none;stroke:#000000;stroke-width:0.327934;"/>
    <path clip-path="url(#p7147c33c07)" d="M 329.621157 174.528 
L 332.900496 174.528 
" style="fill:none;stroke:#000000;stroke-width:0.327934;"/>
    <path clip-path="url(#p7147c33c07)" d="M 332.900496 174.528 
L 336.179835 174.528 
" style="fill:none;stroke:#000000;stroke-width:0.327934;"/>
    <path clip-path="url(#p7147c33c07)" d="M 336.179835 174.528 
L 339.459174 174.528 
" style="fill:none;stroke:#000000;stroke-width:0.327934;"/>
    <path clip-path="url(#p7147c33c07)" d="M 339.459174 174.528 
L 342.738512 174.528 
" style="fill:none;stroke:#000000;stroke-width:0.327934;"/>
    <path clip-path="url(#p7147c33c07)" d="M 342.738512 174.528 
L 346.017851 174.528 
" style="fill:none;stroke:#000000;stroke-width:0.327934;"/>
    <path clip-path="url(#p7147c33c07)" d="M 346.017851 174.528 
L 349.29719 174.528 
" style="fill:none;stroke:#000000;stroke-width:0.327934;"/>
    <path clip-path="url(#p7147c33c07)" d="M 349.29719 174.528 
L 352.576529 174.528 
" style="fill:none;stroke:#000000;stroke-width:0.327934;"/>
    <path clip-path="url(#p7147c33c07)" d="M 352.576529 174.528 
L 355.855868 174.528 
" style="fill:none;stroke:#000000;stroke-width:0.327934;"/>
    <path clip-path="url(#p7147c33c07)" d="M 355.855868 174.528 
L 359.135207 174.528 
" style="fill:none;stroke:#000000;stroke-width:0.327934;"/>
    <path clip-path="url(#p7147c33c07)" d="M 359.135207 174.528 
L 362.414545 174.528 
" style="fill:none;stroke:#000000;stroke-width:0.327934;"/>
    <path clip-path="url(#p7147c33c07)" d="M 362.414545 174.528 
L 365.693884 174.528 
" style="fill:none;stroke:#000000;stroke-width:0.327934;"/>
    <path clip-path="url(#p7147c33c07)" d="M 365.693884 174.528 
L 368.973223 174.528 
" style="fill:none;stroke:#000000;stroke-width:0.327934;"/>
    <path clip-path="url(#p7147c33c07)" d="M 368.973223 174.528 
L 372.252562 174.528 
" style="fill:none;stroke:#000000;stroke-width:0.327934;"/>
    <path clip-path="url(#p7147c33c07)" d="M 372.252562 174.528 
L 375.531901 174.528 
" style="fill:none;stroke:#000000;stroke-width:0.327934;"/>
    <path clip-path="url(#p7147c33c07)" d="M 375.531901 174.528 
L 378.81124 174.528 
" style="fill:none;stroke:#000000;stroke-width:0.327934;"/>
    <path clip-path="url(#p7147c33c07)" d="M 378.81124 174.528 
L 382.090579 174.528 
" style="fill:none;stroke:#000000;stroke-width:0.327934;"/>
    <path clip-path="url(#p7147c33c07)" d="M 382.090579 174.528 
L 385.369917 174.528 
" style="fill:none;stroke:#000000;stroke-width:0.327934;"/>
    <path clip-path="url(#p7147c33c07)" d="M 385.369917 174.528 
L 388.649256 174.528 
" style="fill:none;stroke:#000000;stroke-width:0.327934;"/>
    <path clip-path="url(#p7147c33c07)" d="M 388.649256 174.528 
L 391.928595 174.528 
" style="fill:none;stroke:#000000;stroke-width:0.327934;"/>
    <path clip-path="url(#p7147c33c07)" d="M 391.928595 174.528 
L 395.207934 174.528 
" style="fill:none;stroke:#000000;stroke-width:0.327934;"/>
    <path clip-path="url(#p7147c33c07)" d="M 395.207934 174.528 
L 398.487273 174.528 
" style="fill:none;stroke:#000000;stroke-width:0.327934;"/>
   </g>
   <g id="matplotlib.axis_1">
    <g id="xtick_1">
     <g id="line2d_1">
      <defs>
       <path d="M 0 0 
L 0 3.5 
" id="mda759a7e6d" style="stroke:#000000;stroke-width:0.8;"/>
      </defs>
      <g>
       <use style="stroke:#000000;stroke-width:0.8;" x="73.832727" xlink:href="#mda759a7e6d" y="178.135273"/>
      </g>
     </g>
     <g id="text_1">
      <!-- 0 -->
      <defs>
       <path d="M 31.78125 66.40625 
Q 24.171875 66.40625 20.328125 58.90625 
Q 16.5 51.421875 16.5 36.375 
Q 16.5 21.390625 20.328125 13.890625 
Q 24.171875 6.390625 31.78125 6.390625 
Q 39.453125 6.390625 43.28125 13.890625 
Q 47.125 21.390625 47.125 36.375 
Q 47.125 51.421875 43.28125 58.90625 
Q 39.453125 66.40625 31.78125 66.40625 
z
M 31.78125 74.21875 
Q 44.046875 74.21875 50.515625 64.515625 
Q 56.984375 54.828125 56.984375 36.375 
Q 56.984375 17.96875 50.515625 8.265625 
Q 44.046875 -1.421875 31.78125 -1.421875 
Q 19.53125 -1.421875 13.0625 8.265625 
Q 6.59375 17.96875 6.59375 36.375 
Q 6.59375 54.828125 13.0625 64.515625 
Q 19.53125 74.21875 31.78125 74.21875 
z
" id="DejaVuSans-48"/>
      </defs>
      <g transform="translate(70.651477 192.73371)scale(0.1 -0.1)">
       <use xlink:href="#DejaVuSans-48"/>
      </g>
     </g>
    </g>
    <g id="xtick_2">
     <g id="line2d_2">
      <g>
       <use style="stroke:#000000;stroke-width:0.8;" x="139.419504" xlink:href="#mda759a7e6d" y="178.135273"/>
      </g>
     </g>
     <g id="text_2">
      <!-- 20 -->
      <defs>
       <path d="M 19.1875 8.296875 
L 53.609375 8.296875 
L 53.609375 0 
L 7.328125 0 
L 7.328125 8.296875 
Q 12.9375 14.109375 22.625 23.890625 
Q 32.328125 33.6875 34.8125 36.53125 
Q 39.546875 41.84375 41.421875 45.53125 
Q 43.3125 49.21875 43.3125 52.78125 
Q 43.3125 58.59375 39.234375 62.25 
Q 35.15625 65.921875 28.609375 65.921875 
Q 23.96875 65.921875 18.8125 64.3125 
Q 13.671875 62.703125 7.8125 59.421875 
L 7.8125 69.390625 
Q 13.765625 71.78125 18.9375 73 
Q 24.125 74.21875 28.421875 74.21875 
Q 39.75 74.21875 46.484375 68.546875 
Q 53.21875 62.890625 53.21875 53.421875 
Q 53.21875 48.921875 51.53125 44.890625 
Q 49.859375 40.875 45.40625 35.40625 
Q 44.1875 33.984375 37.640625 27.21875 
Q 31.109375 20.453125 19.1875 8.296875 
z
" id="DejaVuSans-50"/>
      </defs>
      <g transform="translate(133.057004 192.73371)scale(0.1 -0.1)">
       <use xlink:href="#DejaVuSans-50"/>
       <use x="63.623047" xlink:href="#DejaVuSans-48"/>
      </g>
     </g>
    </g>
    <g id="xtick_3">
     <g id="line2d_3">
      <g>
       <use style="stroke:#000000;stroke-width:0.8;" x="205.006281" xlink:href="#mda759a7e6d" y="178.135273"/>
      </g>
     </g>
     <g id="text_3">
      <!-- 40 -->
      <defs>
       <path d="M 37.796875 64.3125 
L 12.890625 25.390625 
L 37.796875 25.390625 
z
M 35.203125 72.90625 
L 47.609375 72.90625 
L 47.609375 25.390625 
L 58.015625 25.390625 
L 58.015625 17.1875 
L 47.609375 17.1875 
L 47.609375 0 
L 37.796875 0 
L 37.796875 17.1875 
L 4.890625 17.1875 
L 4.890625 26.703125 
z
" id="DejaVuSans-52"/>
      </defs>
      <g transform="translate(198.643781 192.73371)scale(0.1 -0.1)">
       <use xlink:href="#DejaVuSans-52"/>
       <use x="63.623047" xlink:href="#DejaVuSans-48"/>
      </g>
     </g>
    </g>
    <g id="xtick_4">
     <g id="line2d_4">
      <g>
       <use style="stroke:#000000;stroke-width:0.8;" x="270.593058" xlink:href="#mda759a7e6d" y="178.135273"/>
      </g>
     </g>
     <g id="text_4">
      <!-- 60 -->
      <defs>
       <path d="M 33.015625 40.375 
Q 26.375 40.375 22.484375 35.828125 
Q 18.609375 31.296875 18.609375 23.390625 
Q 18.609375 15.53125 22.484375 10.953125 
Q 26.375 6.390625 33.015625 6.390625 
Q 39.65625 6.390625 43.53125 10.953125 
Q 47.40625 15.53125 47.40625 23.390625 
Q 47.40625 31.296875 43.53125 35.828125 
Q 39.65625 40.375 33.015625 40.375 
z
M 52.59375 71.296875 
L 52.59375 62.3125 
Q 48.875 64.0625 45.09375 64.984375 
Q 41.3125 65.921875 37.59375 65.921875 
Q 27.828125 65.921875 22.671875 59.328125 
Q 17.53125 52.734375 16.796875 39.40625 
Q 19.671875 43.65625 24.015625 45.921875 
Q 28.375 48.1875 33.59375 48.1875 
Q 44.578125 48.1875 50.953125 41.515625 
Q 57.328125 34.859375 57.328125 23.390625 
Q 57.328125 12.15625 50.6875 5.359375 
Q 44.046875 -1.421875 33.015625 -1.421875 
Q 20.359375 -1.421875 13.671875 8.265625 
Q 6.984375 17.96875 6.984375 36.375 
Q 6.984375 53.65625 15.1875 63.9375 
Q 23.390625 74.21875 37.203125 74.21875 
Q 40.921875 74.21875 44.703125 73.484375 
Q 48.484375 72.75 52.59375 71.296875 
z
" id="DejaVuSans-54"/>
      </defs>
      <g transform="translate(264.230558 192.73371)scale(0.1 -0.1)">
       <use xlink:href="#DejaVuSans-54"/>
       <use x="63.623047" xlink:href="#DejaVuSans-48"/>
      </g>
     </g>
    </g>
    <g id="xtick_5">
     <g id="line2d_5">
      <g>
       <use style="stroke:#000000;stroke-width:0.8;" x="336.179835" xlink:href="#mda759a7e6d" y="178.135273"/>
      </g>
     </g>
     <g id="text_5">
      <!-- 80 -->
      <defs>
       <path d="M 31.78125 34.625 
Q 24.75 34.625 20.71875 30.859375 
Q 16.703125 27.09375 16.703125 20.515625 
Q 16.703125 13.921875 20.71875 10.15625 
Q 24.75 6.390625 31.78125 6.390625 
Q 38.8125 6.390625 42.859375 10.171875 
Q 46.921875 13.96875 46.921875 20.515625 
Q 46.921875 27.09375 42.890625 30.859375 
Q 38.875 34.625 31.78125 34.625 
z
M 21.921875 38.8125 
Q 15.578125 40.375 12.03125 44.71875 
Q 8.5 49.078125 8.5 55.328125 
Q 8.5 64.0625 14.71875 69.140625 
Q 20.953125 74.21875 31.78125 74.21875 
Q 42.671875 74.21875 48.875 69.140625 
Q 55.078125 64.0625 55.078125 55.328125 
Q 55.078125 49.078125 51.53125 44.71875 
Q 48 40.375 41.703125 38.8125 
Q 48.828125 37.15625 52.796875 32.3125 
Q 56.78125 27.484375 56.78125 20.515625 
Q 56.78125 9.90625 50.3125 4.234375 
Q 43.84375 -1.421875 31.78125 -1.421875 
Q 19.734375 -1.421875 13.25 4.234375 
Q 6.78125 9.90625 6.78125 20.515625 
Q 6.78125 27.484375 10.78125 32.3125 
Q 14.796875 37.15625 21.921875 38.8125 
z
M 18.3125 54.390625 
Q 18.3125 48.734375 21.84375 45.5625 
Q 25.390625 42.390625 31.78125 42.390625 
Q 38.140625 42.390625 41.71875 45.5625 
Q 45.3125 48.734375 45.3125 54.390625 
Q 45.3125 60.0625 41.71875 63.234375 
Q 38.140625 66.40625 31.78125 66.40625 
Q 25.390625 66.40625 21.84375 63.234375 
Q 18.3125 60.0625 18.3125 54.390625 
z
" id="DejaVuSans-56"/>
      </defs>
      <g transform="translate(329.817335 192.73371)scale(0.1 -0.1)">
       <use xlink:href="#DejaVuSans-56"/>
       <use x="63.623047" xlink:href="#DejaVuSans-48"/>
      </g>
     </g>
    </g>
    <g id="xtick_6">
     <g id="line2d_6">
      <g>
       <use style="stroke:#000000;stroke-width:0.8;" x="401.766612" xlink:href="#mda759a7e6d" y="178.135273"/>
      </g>
     </g>
     <g id="text_6">
      <!-- 100 -->
      <defs>
       <path d="M 12.40625 8.296875 
L 28.515625 8.296875 
L 28.515625 63.921875 
L 10.984375 60.40625 
L 10.984375 69.390625 
L 28.421875 72.90625 
L 38.28125 72.90625 
L 38.28125 8.296875 
L 54.390625 8.296875 
L 54.390625 0 
L 12.40625 0 
z
" id="DejaVuSans-49"/>
      </defs>
      <g transform="translate(392.222862 192.73371)scale(0.1 -0.1)">
       <use xlink:href="#DejaVuSans-49"/>
       <use x="63.623047" xlink:href="#DejaVuSans-48"/>
       <use x="127.246094" xlink:href="#DejaVuSans-48"/>
      </g>
     </g>
    </g>
   </g>
   <g id="matplotlib.axis_2">
    <g id="ytick_1">
     <g id="line2d_7">
      <defs>
       <path d="M 0 0 
L -3.5 0 
" id="m6c353563c2" style="stroke:#000000;stroke-width:0.8;"/>
      </defs>
      <g>
       <use style="stroke:#000000;stroke-width:0.8;" x="57.6" xlink:href="#m6c353563c2" y="177.807339"/>
      </g>
     </g>
     <g id="text_7">
      <!-- −1 -->
      <defs>
       <path d="M 10.59375 35.5 
L 73.1875 35.5 
L 73.1875 27.203125 
L 10.59375 27.203125 
z
" id="DejaVuSans-8722"/>
      </defs>
      <g transform="translate(35.857813 181.606558)scale(0.1 -0.1)">
       <use xlink:href="#DejaVuSans-8722"/>
       <use x="83.789062" xlink:href="#DejaVuSans-49"/>
      </g>
     </g>
    </g>
    <g id="ytick_2">
     <g id="line2d_8">
      <g>
       <use style="stroke:#000000;stroke-width:0.8;" x="57.6" xlink:href="#m6c353563c2" y="174.528"/>
      </g>
     </g>
     <g id="text_8">
      <!-- 0 -->
      <g transform="translate(44.2375 178.327219)scale(0.1 -0.1)">
       <use xlink:href="#DejaVuSans-48"/>
      </g>
     </g>
    </g>
    <g id="ytick_3">
     <g id="line2d_9">
      <g>
       <use style="stroke:#000000;stroke-width:0.8;" x="57.6" xlink:href="#m6c353563c2" y="171.248661"/>
      </g>
     </g>
     <g id="text_9">
      <!-- 1 -->
      <g transform="translate(44.2375 175.04788)scale(0.1 -0.1)">
       <use xlink:href="#DejaVuSans-49"/>
      </g>
     </g>
    </g>
   </g>
   <g id="PathCollection_1">
    <defs>
     <path d="M 0 0.819835 
C 0.217423 0.819835 0.42597 0.733452 0.579711 0.579711 
C 0.733452 0.42597 0.819835 0.217423 0.819835 0 
C 0.819835 -0.217423 0.733452 -0.42597 0.579711 -0.579711 
C 0.42597 -0.733452 0.217423 -0.819835 0 -0.819835 
C -0.217423 -0.819835 -0.42597 -0.733452 -0.579711 -0.579711 
C -0.733452 -0.42597 -0.819835 -0.217423 -0.819835 0 
C -0.819835 0.217423 -0.733452 0.42597 -0.579711 0.579711 
C -0.42597 0.733452 -0.217423 0.819835 0 0.819835 
z
" id="C0_0_671bb62015"/>
    </defs>
    <g clip-path="url(#p7147c33c07)">
     <use style="fill:#1f77b4;" x="73.832727" xlink:href="#C0_0_671bb62015" y="174.528"/>
    </g>
    <g clip-path="url(#p7147c33c07)">
     <use style="fill:#1f77b4;" x="77.112066" xlink:href="#C0_0_671bb62015" y="174.528"/>
    </g>
    <g clip-path="url(#p7147c33c07)">
     <use style="fill:#1f77b4;" x="80.391405" xlink:href="#C0_0_671bb62015" y="174.528"/>
    </g>
    <g clip-path="url(#p7147c33c07)">
     <use style="fill:#1f77b4;" x="83.670744" xlink:href="#C0_0_671bb62015" y="174.528"/>
    </g>
    <g clip-path="url(#p7147c33c07)">
     <use style="fill:#1f77b4;" x="86.950083" xlink:href="#C0_0_671bb62015" y="174.528"/>
    </g>
    <g clip-path="url(#p7147c33c07)">
     <use style="fill:#1f77b4;" x="90.229421" xlink:href="#C0_0_671bb62015" y="174.528"/>
    </g>
    <g clip-path="url(#p7147c33c07)">
     <use style="fill:#1f77b4;" x="93.50876" xlink:href="#C0_0_671bb62015" y="174.528"/>
    </g>
    <g clip-path="url(#p7147c33c07)">
     <use style="fill:#1f77b4;" x="96.788099" xlink:href="#C0_0_671bb62015" y="174.528"/>
    </g>
    <g clip-path="url(#p7147c33c07)">
     <use style="fill:#1f77b4;" x="100.067438" xlink:href="#C0_0_671bb62015" y="174.528"/>
    </g>
    <g clip-path="url(#p7147c33c07)">
     <use style="fill:#1f77b4;" x="103.346777" xlink:href="#C0_0_671bb62015" y="174.528"/>
    </g>
    <g clip-path="url(#p7147c33c07)">
     <use style="fill:#1f77b4;" x="106.626116" xlink:href="#C0_0_671bb62015" y="174.528"/>
    </g>
    <g clip-path="url(#p7147c33c07)">
     <use style="fill:#1f77b4;" x="109.905455" xlink:href="#C0_0_671bb62015" y="174.528"/>
    </g>
    <g clip-path="url(#p7147c33c07)">
     <use style="fill:#1f77b4;" x="113.184793" xlink:href="#C0_0_671bb62015" y="174.528"/>
    </g>
    <g clip-path="url(#p7147c33c07)">
     <use style="fill:#1f77b4;" x="116.464132" xlink:href="#C0_0_671bb62015" y="174.528"/>
    </g>
    <g clip-path="url(#p7147c33c07)">
     <use style="fill:#1f77b4;" x="119.743471" xlink:href="#C0_0_671bb62015" y="174.528"/>
    </g>
    <g clip-path="url(#p7147c33c07)">
     <use style="fill:#1f77b4;" x="123.02281" xlink:href="#C0_0_671bb62015" y="174.528"/>
    </g>
    <g clip-path="url(#p7147c33c07)">
     <use style="fill:#1f77b4;" x="126.302149" xlink:href="#C0_0_671bb62015" y="174.528"/>
    </g>
    <g clip-path="url(#p7147c33c07)">
     <use style="fill:#1f77b4;" x="129.581488" xlink:href="#C0_0_671bb62015" y="174.528"/>
    </g>
    <g clip-path="url(#p7147c33c07)">
     <use style="fill:#1f77b4;" x="132.860826" xlink:href="#C0_0_671bb62015" y="174.528"/>
    </g>
    <g clip-path="url(#p7147c33c07)">
     <use style="fill:#1f77b4;" x="136.140165" xlink:href="#C0_0_671bb62015" y="174.528"/>
    </g>
    <g clip-path="url(#p7147c33c07)">
     <use style="fill:#1f77b4;" x="139.419504" xlink:href="#C0_0_671bb62015" y="174.528"/>
    </g>
    <g clip-path="url(#p7147c33c07)">
     <use style="fill:#1f77b4;" x="142.698843" xlink:href="#C0_0_671bb62015" y="174.528"/>
    </g>
    <g clip-path="url(#p7147c33c07)">
     <use style="fill:#1f77b4;" x="145.978182" xlink:href="#C0_0_671bb62015" y="174.528"/>
    </g>
    <g clip-path="url(#p7147c33c07)">
     <use style="fill:#1f77b4;" x="149.257521" xlink:href="#C0_0_671bb62015" y="174.528"/>
    </g>
    <g clip-path="url(#p7147c33c07)">
     <use style="fill:#1f77b4;" x="152.53686" xlink:href="#C0_0_671bb62015" y="174.528"/>
    </g>
    <g clip-path="url(#p7147c33c07)">
     <use style="fill:#1f77b4;" x="155.816198" xlink:href="#C0_0_671bb62015" y="174.528"/>
    </g>
    <g clip-path="url(#p7147c33c07)">
     <use style="fill:#1f77b4;" x="159.095537" xlink:href="#C0_0_671bb62015" y="174.528"/>
    </g>
    <g clip-path="url(#p7147c33c07)">
     <use style="fill:#1f77b4;" x="162.374876" xlink:href="#C0_0_671bb62015" y="174.528"/>
    </g>
    <g clip-path="url(#p7147c33c07)">
     <use style="fill:#1f77b4;" x="165.654215" xlink:href="#C0_0_671bb62015" y="174.528"/>
    </g>
    <g clip-path="url(#p7147c33c07)">
     <use style="fill:#1f77b4;" x="168.933554" xlink:href="#C0_0_671bb62015" y="174.528"/>
    </g>
    <g clip-path="url(#p7147c33c07)">
     <use style="fill:#1f77b4;" x="172.212893" xlink:href="#C0_0_671bb62015" y="174.528"/>
    </g>
    <g clip-path="url(#p7147c33c07)">
     <use style="fill:#1f77b4;" x="175.492231" xlink:href="#C0_0_671bb62015" y="174.528"/>
    </g>
    <g clip-path="url(#p7147c33c07)">
     <use style="fill:#1f77b4;" x="178.77157" xlink:href="#C0_0_671bb62015" y="174.528"/>
    </g>
    <g clip-path="url(#p7147c33c07)">
     <use style="fill:#1f77b4;" x="182.050909" xlink:href="#C0_0_671bb62015" y="174.528"/>
    </g>
    <g clip-path="url(#p7147c33c07)">
     <use style="fill:#1f77b4;" x="185.330248" xlink:href="#C0_0_671bb62015" y="174.528"/>
    </g>
    <g clip-path="url(#p7147c33c07)">
     <use style="fill:#1f77b4;" x="188.609587" xlink:href="#C0_0_671bb62015" y="174.528"/>
    </g>
    <g clip-path="url(#p7147c33c07)">
     <use style="fill:#1f77b4;" x="191.888926" xlink:href="#C0_0_671bb62015" y="174.528"/>
    </g>
    <g clip-path="url(#p7147c33c07)">
     <use style="fill:#1f77b4;" x="195.168264" xlink:href="#C0_0_671bb62015" y="174.528"/>
    </g>
    <g clip-path="url(#p7147c33c07)">
     <use style="fill:#1f77b4;" x="198.447603" xlink:href="#C0_0_671bb62015" y="174.528"/>
    </g>
    <g clip-path="url(#p7147c33c07)">
     <use style="fill:#1f77b4;" x="201.726942" xlink:href="#C0_0_671bb62015" y="174.528"/>
    </g>
    <g clip-path="url(#p7147c33c07)">
     <use style="fill:#1f77b4;" x="205.006281" xlink:href="#C0_0_671bb62015" y="174.528"/>
    </g>
    <g clip-path="url(#p7147c33c07)">
     <use style="fill:#1f77b4;" x="208.28562" xlink:href="#C0_0_671bb62015" y="174.528"/>
    </g>
    <g clip-path="url(#p7147c33c07)">
     <use style="fill:#1f77b4;" x="211.564959" xlink:href="#C0_0_671bb62015" y="174.528"/>
    </g>
    <g clip-path="url(#p7147c33c07)">
     <use style="fill:#1f77b4;" x="214.844298" xlink:href="#C0_0_671bb62015" y="174.528"/>
    </g>
    <g clip-path="url(#p7147c33c07)">
     <use style="fill:#1f77b4;" x="218.123636" xlink:href="#C0_0_671bb62015" y="174.528"/>
    </g>
    <g clip-path="url(#p7147c33c07)">
     <use style="fill:#1f77b4;" x="221.402975" xlink:href="#C0_0_671bb62015" y="174.528"/>
    </g>
    <g clip-path="url(#p7147c33c07)">
     <use style="fill:#1f77b4;" x="224.682314" xlink:href="#C0_0_671bb62015" y="174.528"/>
    </g>
    <g clip-path="url(#p7147c33c07)">
     <use style="fill:#1f77b4;" x="227.961653" xlink:href="#C0_0_671bb62015" y="174.528"/>
    </g>
    <g clip-path="url(#p7147c33c07)">
     <use style="fill:#1f77b4;" x="231.240992" xlink:href="#C0_0_671bb62015" y="174.528"/>
    </g>
    <g clip-path="url(#p7147c33c07)">
     <use style="fill:#1f77b4;" x="234.520331" xlink:href="#C0_0_671bb62015" y="174.528"/>
    </g>
    <g clip-path="url(#p7147c33c07)">
     <use style="fill:#1f77b4;" x="237.799669" xlink:href="#C0_0_671bb62015" y="174.528"/>
    </g>
    <g clip-path="url(#p7147c33c07)">
     <use style="fill:#1f77b4;" x="241.079008" xlink:href="#C0_0_671bb62015" y="174.528"/>
    </g>
    <g clip-path="url(#p7147c33c07)">
     <use style="fill:#1f77b4;" x="244.358347" xlink:href="#C0_0_671bb62015" y="174.528"/>
    </g>
    <g clip-path="url(#p7147c33c07)">
     <use style="fill:#1f77b4;" x="247.637686" xlink:href="#C0_0_671bb62015" y="174.528"/>
    </g>
    <g clip-path="url(#p7147c33c07)">
     <use style="fill:#1f77b4;" x="250.917025" xlink:href="#C0_0_671bb62015" y="174.528"/>
    </g>
    <g clip-path="url(#p7147c33c07)">
     <use style="fill:#1f77b4;" x="254.196364" xlink:href="#C0_0_671bb62015" y="174.528"/>
    </g>
    <g clip-path="url(#p7147c33c07)">
     <use style="fill:#1f77b4;" x="257.475702" xlink:href="#C0_0_671bb62015" y="174.528"/>
    </g>
    <g clip-path="url(#p7147c33c07)">
     <use style="fill:#1f77b4;" x="260.755041" xlink:href="#C0_0_671bb62015" y="174.528"/>
    </g>
    <g clip-path="url(#p7147c33c07)">
     <use style="fill:#1f77b4;" x="264.03438" xlink:href="#C0_0_671bb62015" y="174.528"/>
    </g>
    <g clip-path="url(#p7147c33c07)">
     <use style="fill:#1f77b4;" x="267.313719" xlink:href="#C0_0_671bb62015" y="174.528"/>
    </g>
    <g clip-path="url(#p7147c33c07)">
     <use style="fill:#1f77b4;" x="270.593058" xlink:href="#C0_0_671bb62015" y="174.528"/>
    </g>
    <g clip-path="url(#p7147c33c07)">
     <use style="fill:#1f77b4;" x="273.872397" xlink:href="#C0_0_671bb62015" y="174.528"/>
    </g>
    <g clip-path="url(#p7147c33c07)">
     <use style="fill:#1f77b4;" x="277.151736" xlink:href="#C0_0_671bb62015" y="174.528"/>
    </g>
    <g clip-path="url(#p7147c33c07)">
     <use style="fill:#1f77b4;" x="280.431074" xlink:href="#C0_0_671bb62015" y="174.528"/>
    </g>
    <g clip-path="url(#p7147c33c07)">
     <use style="fill:#1f77b4;" x="283.710413" xlink:href="#C0_0_671bb62015" y="174.528"/>
    </g>
    <g clip-path="url(#p7147c33c07)">
     <use style="fill:#1f77b4;" x="286.989752" xlink:href="#C0_0_671bb62015" y="174.528"/>
    </g>
    <g clip-path="url(#p7147c33c07)">
     <use style="fill:#1f77b4;" x="290.269091" xlink:href="#C0_0_671bb62015" y="174.528"/>
    </g>
    <g clip-path="url(#p7147c33c07)">
     <use style="fill:#1f77b4;" x="293.54843" xlink:href="#C0_0_671bb62015" y="174.528"/>
    </g>
    <g clip-path="url(#p7147c33c07)">
     <use style="fill:#1f77b4;" x="296.827769" xlink:href="#C0_0_671bb62015" y="174.528"/>
    </g>
    <g clip-path="url(#p7147c33c07)">
     <use style="fill:#1f77b4;" x="300.107107" xlink:href="#C0_0_671bb62015" y="174.528"/>
    </g>
    <g clip-path="url(#p7147c33c07)">
     <use style="fill:#1f77b4;" x="303.386446" xlink:href="#C0_0_671bb62015" y="174.528"/>
    </g>
    <g clip-path="url(#p7147c33c07)">
     <use style="fill:#1f77b4;" x="306.665785" xlink:href="#C0_0_671bb62015" y="174.528"/>
    </g>
    <g clip-path="url(#p7147c33c07)">
     <use style="fill:#1f77b4;" x="309.945124" xlink:href="#C0_0_671bb62015" y="174.528"/>
    </g>
    <g clip-path="url(#p7147c33c07)">
     <use style="fill:#1f77b4;" x="313.224463" xlink:href="#C0_0_671bb62015" y="174.528"/>
    </g>
    <g clip-path="url(#p7147c33c07)">
     <use style="fill:#1f77b4;" x="316.503802" xlink:href="#C0_0_671bb62015" y="174.528"/>
    </g>
    <g clip-path="url(#p7147c33c07)">
     <use style="fill:#1f77b4;" x="319.78314" xlink:href="#C0_0_671bb62015" y="174.528"/>
    </g>
    <g clip-path="url(#p7147c33c07)">
     <use style="fill:#1f77b4;" x="323.062479" xlink:href="#C0_0_671bb62015" y="174.528"/>
    </g>
    <g clip-path="url(#p7147c33c07)">
     <use style="fill:#1f77b4;" x="326.341818" xlink:href="#C0_0_671bb62015" y="174.528"/>
    </g>
    <g clip-path="url(#p7147c33c07)">
     <use style="fill:#1f77b4;" x="329.621157" xlink:href="#C0_0_671bb62015" y="174.528"/>
    </g>
    <g clip-path="url(#p7147c33c07)">
     <use style="fill:#1f77b4;" x="332.900496" xlink:href="#C0_0_671bb62015" y="174.528"/>
    </g>
    <g clip-path="url(#p7147c33c07)">
     <use style="fill:#1f77b4;" x="336.179835" xlink:href="#C0_0_671bb62015" y="174.528"/>
    </g>
    <g clip-path="url(#p7147c33c07)">
     <use style="fill:#1f77b4;" x="339.459174" xlink:href="#C0_0_671bb62015" y="174.528"/>
    </g>
    <g clip-path="url(#p7147c33c07)">
     <use style="fill:#1f77b4;" x="342.738512" xlink:href="#C0_0_671bb62015" y="174.528"/>
    </g>
    <g clip-path="url(#p7147c33c07)">
     <use style="fill:#1f77b4;" x="346.017851" xlink:href="#C0_0_671bb62015" y="174.528"/>
    </g>
    <g clip-path="url(#p7147c33c07)">
     <use style="fill:#1f77b4;" x="349.29719" xlink:href="#C0_0_671bb62015" y="174.528"/>
    </g>
    <g clip-path="url(#p7147c33c07)">
     <use style="fill:#1f77b4;" x="352.576529" xlink:href="#C0_0_671bb62015" y="174.528"/>
    </g>
    <g clip-path="url(#p7147c33c07)">
     <use style="fill:#1f77b4;" x="355.855868" xlink:href="#C0_0_671bb62015" y="174.528"/>
    </g>
    <g clip-path="url(#p7147c33c07)">
     <use style="fill:#1f77b4;" x="359.135207" xlink:href="#C0_0_671bb62015" y="174.528"/>
    </g>
    <g clip-path="url(#p7147c33c07)">
     <use style="fill:#1f77b4;" x="362.414545" xlink:href="#C0_0_671bb62015" y="174.528"/>
    </g>
    <g clip-path="url(#p7147c33c07)">
     <use style="fill:#1f77b4;" x="365.693884" xlink:href="#C0_0_671bb62015" y="174.528"/>
    </g>
    <g clip-path="url(#p7147c33c07)">
     <use style="fill:#1f77b4;" x="368.973223" xlink:href="#C0_0_671bb62015" y="174.528"/>
    </g>
    <g clip-path="url(#p7147c33c07)">
     <use style="fill:#1f77b4;" x="372.252562" xlink:href="#C0_0_671bb62015" y="174.528"/>
    </g>
    <g clip-path="url(#p7147c33c07)">
     <use style="fill:#1f77b4;" x="375.531901" xlink:href="#C0_0_671bb62015" y="174.528"/>
    </g>
    <g clip-path="url(#p7147c33c07)">
     <use style="fill:#1f77b4;" x="378.81124" xlink:href="#C0_0_671bb62015" y="174.528"/>
    </g>
    <g clip-path="url(#p7147c33c07)">
     <use style="fill:#1f77b4;" x="382.090579" xlink:href="#C0_0_671bb62015" y="174.528"/>
    </g>
    <g clip-path="url(#p7147c33c07)">
     <use style="fill:#1f77b4;" x="385.369917" xlink:href="#C0_0_671bb62015" y="174.528"/>
    </g>
    <g clip-path="url(#p7147c33c07)">
     <use style="fill:#1f77b4;" x="388.649256" xlink:href="#C0_0_671bb62015" y="174.528"/>
    </g>
    <g clip-path="url(#p7147c33c07)">
     <use style="fill:#1f77b4;" x="391.928595" xlink:href="#C0_0_671bb62015" y="174.528"/>
    </g>
    <g clip-path="url(#p7147c33c07)">
     <use style="fill:#1f77b4;" x="395.207934" xlink:href="#C0_0_671bb62015" y="174.528"/>
    </g>
    <g clip-path="url(#p7147c33c07)">
     <use style="fill:#1f77b4;" x="398.487273" xlink:href="#C0_0_671bb62015" y="174.528"/>
    </g>
   </g>
   <g id="patch_3">
    <path d="M 57.6 178.135273 
L 57.6 170.920727 
" style="fill:none;stroke:#000000;stroke-linecap:square;stroke-linejoin:miter;stroke-width:0.8;"/>
   </g>
   <g id="patch_4">
    <path d="M 414.72 178.135273 
L 414.72 170.920727 
" style="fill:none;stroke:#000000;stroke-linecap:square;stroke-linejoin:miter;stroke-width:0.8;"/>
   </g>
   <g id="patch_5">
    <path d="M 57.6 178.135273 
L 414.72 178.135273 
" style="fill:none;stroke:#000000;stroke-linecap:square;stroke-linejoin:miter;stroke-width:0.8;"/>
   </g>
   <g id="patch_6">
    <path d="M 57.6 170.920727 
L 414.72 170.920727 
" style="fill:none;stroke:#000000;stroke-linecap:square;stroke-linejoin:miter;stroke-width:0.8;"/>
   </g>
  </g>
 </g>
 <defs>
  <clipPath id="p7147c33c07">
   <rect height="7.214545" width="357.12" x="57.6" y="170.920727"/>
  </clipPath>
 </defs>
</svg>
