<?xml version="1.0" encoding="utf-8" standalone="no"?>
<!DOCTYPE svg PUBLIC "-//W3C//DTD SVG 1.1//EN"
  "http://www.w3.org/Graphics/SVG/1.1/DTD/svg11.dtd">
<!-- Created with matplotlib (https://matplotlib.org/) -->
<svg height="345.6pt" version="1.1" viewBox="0 0 460.8 345.6" width="460.8pt" xmlns="http://www.w3.org/2000/svg" xmlns:xlink="http://www.w3.org/1999/xlink">
 <defs>
  <style type="text/css">
*{stroke-linecap:butt;stroke-linejoin:round;}
  </style>
 </defs>
 <g id="figure_1">
  <g id="patch_1">
   <path d="M 0 345.6 
L 460.8 345.6 
L 460.8 0 
L 0 0 
z
" style="fill:#ffffff;"/>
  </g>
  <g id="axes_1">
   <g id="patch_2">
    <path d="M 57.6 307.584 
L 414.72 307.584 
L 414.72 41.472 
L 57.6 41.472 
z
" style="fill:#ffffff;"/>
   </g>
   <g id="matplotlib.axis_1">
    <g id="xtick_1">
     <g id="line2d_1">
      <defs>
       <path d="M 0 0 
L 0 3.5 
" id="m539734e62a" style="stroke:#000000;stroke-width:0.8;"/>
      </defs>
      <g>
       <use style="stroke:#000000;stroke-width:0.8;" x="88.738813" xlink:href="#m539734e62a" y="307.584"/>
      </g>
     </g>
     <g id="text_1">
      <!-- −3 -->
      <defs>
       <path d="M 10.59375 35.5 
L 73.1875 35.5 
L 73.1875 27.203125 
L 10.59375 27.203125 
z
" id="DejaVuSans-8722"/>
       <path d="M 40.578125 39.3125 
Q 47.65625 37.796875 51.625 33 
Q 55.609375 28.21875 55.609375 21.1875 
Q 55.609375 10.40625 48.1875 4.484375 
Q 40.765625 -1.421875 27.09375 -1.421875 
Q 22.515625 -1.421875 17.65625 -0.515625 
Q 12.796875 0.390625 7.625 2.203125 
L 7.625 11.71875 
Q 11.71875 9.328125 16.59375 8.109375 
Q 21.484375 6.890625 26.8125 6.890625 
Q 36.078125 6.890625 40.9375 10.546875 
Q 45.796875 14.203125 45.796875 21.1875 
Q 45.796875 27.640625 41.28125 31.265625 
Q 36.765625 34.90625 28.71875 34.90625 
L 20.21875 34.90625 
L 20.21875 43.015625 
L 29.109375 43.015625 
Q 36.375 43.015625 40.234375 45.921875 
Q 44.09375 48.828125 44.09375 54.296875 
Q 44.09375 59.90625 40.109375 62.90625 
Q 36.140625 65.921875 28.71875 65.921875 
Q 24.65625 65.921875 20.015625 65.03125 
Q 15.375 64.15625 9.8125 62.3125 
L 9.8125 71.09375 
Q 15.4375 72.65625 20.34375 73.4375 
Q 25.25 74.21875 29.59375 74.21875 
Q 40.828125 74.21875 47.359375 69.109375 
Q 53.90625 64.015625 53.90625 55.328125 
Q 53.90625 49.265625 50.4375 45.09375 
Q 46.96875 40.921875 40.578125 39.3125 
z
" id="DejaVuSans-51"/>
      </defs>
      <g transform="translate(81.367719 322.182437)scale(0.1 -0.1)">
       <use xlink:href="#DejaVuSans-8722"/>
       <use x="83.789062" xlink:href="#DejaVuSans-51"/>
      </g>
     </g>
    </g>
    <g id="xtick_2">
     <g id="line2d_2">
      <g>
       <use style="stroke:#000000;stroke-width:0.8;" x="138.425765" xlink:href="#m539734e62a" y="307.584"/>
      </g>
     </g>
     <g id="text_2">
      <!-- −2 -->
      <defs>
       <path d="M 19.1875 8.296875 
L 53.609375 8.296875 
L 53.609375 0 
L 7.328125 0 
L 7.328125 8.296875 
Q 12.9375 14.109375 22.625 23.890625 
Q 32.328125 33.6875 34.8125 36.53125 
Q 39.546875 41.84375 41.421875 45.53125 
Q 43.3125 49.21875 43.3125 52.78125 
Q 43.3125 58.59375 39.234375 62.25 
Q 35.15625 65.921875 28.609375 65.921875 
Q 23.96875 65.921875 18.8125 64.3125 
Q 13.671875 62.703125 7.8125 59.421875 
L 7.8125 69.390625 
Q 13.765625 71.78125 18.9375 73 
Q 24.125 74.21875 28.421875 74.21875 
Q 39.75 74.21875 46.484375 68.546875 
Q 53.21875 62.890625 53.21875 53.421875 
Q 53.21875 48.921875 51.53125 44.890625 
Q 49.859375 40.875 45.40625 35.40625 
Q 44.1875 33.984375 37.640625 27.21875 
Q 31.109375 20.453125 19.1875 8.296875 
z
" id="DejaVuSans-50"/>
      </defs>
      <g transform="translate(131.054671 322.182437)scale(0.1 -0.1)">
       <use xlink:href="#DejaVuSans-8722"/>
       <use x="83.789062" xlink:href="#DejaVuSans-50"/>
      </g>
     </g>
    </g>
    <g id="xtick_3">
     <g id="line2d_3">
      <g>
       <use style="stroke:#000000;stroke-width:0.8;" x="188.112717" xlink:href="#m539734e62a" y="307.584"/>
      </g>
     </g>
     <g id="text_3">
      <!-- −1 -->
      <defs>
       <path d="M 12.40625 8.296875 
L 28.515625 8.296875 
L 28.515625 63.921875 
L 10.984375 60.40625 
L 10.984375 69.390625 
L 28.421875 72.90625 
L 38.28125 72.90625 
L 38.28125 8.296875 
L 54.390625 8.296875 
L 54.390625 0 
L 12.40625 0 
z
" id="DejaVuSans-49"/>
      </defs>
      <g transform="translate(180.741624 322.182437)scale(0.1 -0.1)">
       <use xlink:href="#DejaVuSans-8722"/>
       <use x="83.789062" xlink:href="#DejaVuSans-49"/>
      </g>
     </g>
    </g>
    <g id="xtick_4">
     <g id="line2d_4">
      <g>
       <use style="stroke:#000000;stroke-width:0.8;" x="237.799669" xlink:href="#m539734e62a" y="307.584"/>
      </g>
     </g>
     <g id="text_4">
      <!-- 0 -->
      <defs>
       <path d="M 31.78125 66.40625 
Q 24.171875 66.40625 20.328125 58.90625 
Q 16.5 51.421875 16.5 36.375 
Q 16.5 21.390625 20.328125 13.890625 
Q 24.171875 6.390625 31.78125 6.390625 
Q 39.453125 6.390625 43.28125 13.890625 
Q 47.125 21.390625 47.125 36.375 
Q 47.125 51.421875 43.28125 58.90625 
Q 39.453125 66.40625 31.78125 66.40625 
z
M 31.78125 74.21875 
Q 44.046875 74.21875 50.515625 64.515625 
Q 56.984375 54.828125 56.984375 36.375 
Q 56.984375 17.96875 50.515625 8.265625 
Q 44.046875 -1.421875 31.78125 -1.421875 
Q 19.53125 -1.421875 13.0625 8.265625 
Q 6.59375 17.96875 6.59375 36.375 
Q 6.59375 54.828125 13.0625 64.515625 
Q 19.53125 74.21875 31.78125 74.21875 
z
" id="DejaVuSans-48"/>
      </defs>
      <g transform="translate(234.618419 322.182437)scale(0.1 -0.1)">
       <use xlink:href="#DejaVuSans-48"/>
      </g>
     </g>
    </g>
    <g id="xtick_5">
     <g id="line2d_5">
      <g>
       <use style="stroke:#000000;stroke-width:0.8;" x="287.486622" xlink:href="#m539734e62a" y="307.584"/>
      </g>
     </g>
     <g id="text_5">
      <!-- 1 -->
      <g transform="translate(284.305372 322.182437)scale(0.1 -0.1)">
       <use xlink:href="#DejaVuSans-49"/>
      </g>
     </g>
    </g>
    <g id="xtick_6">
     <g id="line2d_6">
      <g>
       <use style="stroke:#000000;stroke-width:0.8;" x="337.173574" xlink:href="#m539734e62a" y="307.584"/>
      </g>
     </g>
     <g id="text_6">
      <!-- 2 -->
      <g transform="translate(333.992324 322.182437)scale(0.1 -0.1)">
       <use xlink:href="#DejaVuSans-50"/>
      </g>
     </g>
    </g>
    <g id="xtick_7">
     <g id="line2d_7">
      <g>
       <use style="stroke:#000000;stroke-width:0.8;" x="386.860526" xlink:href="#m539734e62a" y="307.584"/>
      </g>
     </g>
     <g id="text_7">
      <!-- 3 -->
      <g transform="translate(383.679276 322.182437)scale(0.1 -0.1)">
       <use xlink:href="#DejaVuSans-51"/>
      </g>
     </g>
    </g>
    <g id="text_8">
     <!-- $z$ $(m)$ -->
     <defs>
      <path d="M 11.625 54.6875 
L 54.296875 54.6875 
L 52.6875 46.484375 
L 11.53125 7.171875 
L 45.515625 7.171875 
L 44.09375 0 
L -0.296875 0 
L 1.3125 8.203125 
L 42.484375 47.515625 
L 10.203125 47.515625 
z
" id="DejaVuSans-Oblique-122"/>
      <path id="DejaVuSans-32"/>
      <path d="M 31 75.875 
Q 24.46875 64.65625 21.28125 53.65625 
Q 18.109375 42.671875 18.109375 31.390625 
Q 18.109375 20.125 21.3125 9.0625 
Q 24.515625 -2 31 -13.1875 
L 23.1875 -13.1875 
Q 15.875 -1.703125 12.234375 9.375 
Q 8.59375 20.453125 8.59375 31.390625 
Q 8.59375 42.28125 12.203125 53.3125 
Q 15.828125 64.359375 23.1875 75.875 
z
" id="DejaVuSans-40"/>
      <path d="M 89.796875 33.015625 
L 83.40625 0 
L 74.421875 0 
L 80.71875 32.71875 
Q 81.109375 34.8125 81.296875 36.328125 
Q 81.5 37.84375 81.5 38.921875 
Q 81.5 43.3125 79.046875 45.75 
Q 76.609375 48.1875 72.21875 48.1875 
Q 65.671875 48.1875 60.546875 43.28125 
Q 55.421875 38.375 53.90625 30.515625 
L 47.90625 0 
L 38.921875 0 
L 45.3125 32.71875 
Q 45.703125 34.515625 45.890625 36.046875 
Q 46.09375 37.59375 46.09375 38.8125 
Q 46.09375 43.265625 43.65625 45.71875 
Q 41.21875 48.1875 36.921875 48.1875 
Q 30.28125 48.1875 25.140625 43.28125 
Q 20.015625 38.375 18.5 30.515625 
L 12.5 0 
L 3.515625 0 
L 14.203125 54.6875 
L 23.1875 54.6875 
L 21.484375 46.1875 
Q 25.140625 50.984375 30.046875 53.484375 
Q 34.96875 56 40.578125 56 
Q 46.53125 56 50.359375 52.875 
Q 54.203125 49.75 54.984375 44.1875 
Q 59.078125 49.953125 64.46875 52.96875 
Q 69.875 56 75.875 56 
Q 82.90625 56 86.734375 51.953125 
Q 90.578125 47.90625 90.578125 40.484375 
Q 90.578125 38.875 90.375 36.9375 
Q 90.1875 35.015625 89.796875 33.015625 
z
" id="DejaVuSans-Oblique-109"/>
      <path d="M 8.015625 75.875 
L 15.828125 75.875 
Q 23.140625 64.359375 26.78125 53.3125 
Q 30.421875 42.28125 30.421875 31.390625 
Q 30.421875 20.453125 26.78125 9.375 
Q 23.140625 -1.703125 15.828125 -13.1875 
L 8.015625 -13.1875 
Q 14.5 -2 17.703125 9.0625 
Q 20.90625 20.125 20.90625 31.390625 
Q 20.90625 42.671875 17.703125 53.65625 
Q 14.5 64.65625 8.015625 75.875 
z
" id="DejaVuSans-41"/>
     </defs>
     <g transform="translate(223.16 335.860562)scale(0.1 -0.1)">
      <use transform="translate(0 0.125)" xlink:href="#DejaVuSans-Oblique-122"/>
      <use transform="translate(52.490234 0.125)" xlink:href="#DejaVuSans-32"/>
      <use transform="translate(84.277344 0.125)" xlink:href="#DejaVuSans-40"/>
      <use transform="translate(123.291016 0.125)" xlink:href="#DejaVuSans-Oblique-109"/>
      <use transform="translate(220.703125 0.125)" xlink:href="#DejaVuSans-41"/>
     </g>
    </g>
    <g id="text_9">
     <!-- 1e−7 -->
     <defs>
      <path d="M 56.203125 29.59375 
L 56.203125 25.203125 
L 14.890625 25.203125 
Q 15.484375 15.921875 20.484375 11.0625 
Q 25.484375 6.203125 34.421875 6.203125 
Q 39.59375 6.203125 44.453125 7.46875 
Q 49.3125 8.734375 54.109375 11.28125 
L 54.109375 2.78125 
Q 49.265625 0.734375 44.1875 -0.34375 
Q 39.109375 -1.421875 33.890625 -1.421875 
Q 20.796875 -1.421875 13.15625 6.1875 
Q 5.515625 13.8125 5.515625 26.8125 
Q 5.515625 40.234375 12.765625 48.109375 
Q 20.015625 56 32.328125 56 
Q 43.359375 56 49.78125 48.890625 
Q 56.203125 41.796875 56.203125 29.59375 
z
M 47.21875 32.234375 
Q 47.125 39.59375 43.09375 43.984375 
Q 39.0625 48.390625 32.421875 48.390625 
Q 24.90625 48.390625 20.390625 44.140625 
Q 15.875 39.890625 15.1875 32.171875 
z
" id="DejaVuSans-101"/>
      <path d="M 8.203125 72.90625 
L 55.078125 72.90625 
L 55.078125 68.703125 
L 28.609375 0 
L 18.3125 0 
L 43.21875 64.59375 
L 8.203125 64.59375 
z
" id="DejaVuSans-55"/>
     </defs>
     <g transform="translate(387.462188 334.860562)scale(0.1 -0.1)">
      <use xlink:href="#DejaVuSans-49"/>
      <use x="63.623047" xlink:href="#DejaVuSans-101"/>
      <use x="125.146484" xlink:href="#DejaVuSans-8722"/>
      <use x="208.935547" xlink:href="#DejaVuSans-55"/>
     </g>
    </g>
   </g>
   <g id="matplotlib.axis_2">
    <g id="ytick_1">
     <g id="line2d_8">
      <defs>
       <path d="M 0 0 
L -3.5 0 
" id="m1d7fb12990" style="stroke:#000000;stroke-width:0.8;"/>
      </defs>
      <g>
       <use style="stroke:#000000;stroke-width:0.8;" x="57.6" xlink:href="#m1d7fb12990" y="288.119959"/>
      </g>
     </g>
     <g id="text_10">
      <!-- 0.00 -->
      <defs>
       <path d="M 10.6875 12.40625 
L 21 12.40625 
L 21 0 
L 10.6875 0 
z
" id="DejaVuSans-46"/>
      </defs>
      <g transform="translate(28.334375 291.919178)scale(0.1 -0.1)">
       <use xlink:href="#DejaVuSans-48"/>
       <use x="63.623047" xlink:href="#DejaVuSans-46"/>
       <use x="95.410156" xlink:href="#DejaVuSans-48"/>
       <use x="159.033203" xlink:href="#DejaVuSans-48"/>
      </g>
     </g>
    </g>
    <g id="ytick_2">
     <g id="line2d_9">
      <g>
       <use style="stroke:#000000;stroke-width:0.8;" x="57.6" xlink:href="#m1d7fb12990" y="243.658256"/>
      </g>
     </g>
     <g id="text_11">
      <!-- 0.05 -->
      <defs>
       <path d="M 10.796875 72.90625 
L 49.515625 72.90625 
L 49.515625 64.59375 
L 19.828125 64.59375 
L 19.828125 46.734375 
Q 21.96875 47.46875 24.109375 47.828125 
Q 26.265625 48.1875 28.421875 48.1875 
Q 40.625 48.1875 47.75 41.5 
Q 54.890625 34.8125 54.890625 23.390625 
Q 54.890625 11.625 47.5625 5.09375 
Q 40.234375 -1.421875 26.90625 -1.421875 
Q 22.3125 -1.421875 17.546875 -0.640625 
Q 12.796875 0.140625 7.71875 1.703125 
L 7.71875 11.625 
Q 12.109375 9.234375 16.796875 8.0625 
Q 21.484375 6.890625 26.703125 6.890625 
Q 35.15625 6.890625 40.078125 11.328125 
Q 45.015625 15.765625 45.015625 23.390625 
Q 45.015625 31 40.078125 35.4375 
Q 35.15625 39.890625 26.703125 39.890625 
Q 22.75 39.890625 18.8125 39.015625 
Q 14.890625 38.140625 10.796875 36.28125 
z
" id="DejaVuSans-53"/>
      </defs>
      <g transform="translate(28.334375 247.457474)scale(0.1 -0.1)">
       <use xlink:href="#DejaVuSans-48"/>
       <use x="63.623047" xlink:href="#DejaVuSans-46"/>
       <use x="95.410156" xlink:href="#DejaVuSans-48"/>
       <use x="159.033203" xlink:href="#DejaVuSans-53"/>
      </g>
     </g>
    </g>
    <g id="ytick_3">
     <g id="line2d_10">
      <g>
       <use style="stroke:#000000;stroke-width:0.8;" x="57.6" xlink:href="#m1d7fb12990" y="199.196552"/>
      </g>
     </g>
     <g id="text_12">
      <!-- 0.10 -->
      <g transform="translate(28.334375 202.995771)scale(0.1 -0.1)">
       <use xlink:href="#DejaVuSans-48"/>
       <use x="63.623047" xlink:href="#DejaVuSans-46"/>
       <use x="95.410156" xlink:href="#DejaVuSans-49"/>
       <use x="159.033203" xlink:href="#DejaVuSans-48"/>
      </g>
     </g>
    </g>
    <g id="ytick_4">
     <g id="line2d_11">
      <g>
       <use style="stroke:#000000;stroke-width:0.8;" x="57.6" xlink:href="#m1d7fb12990" y="154.734848"/>
      </g>
     </g>
     <g id="text_13">
      <!-- 0.15 -->
      <g transform="translate(28.334375 158.534067)scale(0.1 -0.1)">
       <use xlink:href="#DejaVuSans-48"/>
       <use x="63.623047" xlink:href="#DejaVuSans-46"/>
       <use x="95.410156" xlink:href="#DejaVuSans-49"/>
       <use x="159.033203" xlink:href="#DejaVuSans-53"/>
      </g>
     </g>
    </g>
    <g id="ytick_5">
     <g id="line2d_12">
      <g>
       <use style="stroke:#000000;stroke-width:0.8;" x="57.6" xlink:href="#m1d7fb12990" y="110.273144"/>
      </g>
     </g>
     <g id="text_14">
      <!-- 0.20 -->
      <g transform="translate(28.334375 114.072363)scale(0.1 -0.1)">
       <use xlink:href="#DejaVuSans-48"/>
       <use x="63.623047" xlink:href="#DejaVuSans-46"/>
       <use x="95.410156" xlink:href="#DejaVuSans-50"/>
       <use x="159.033203" xlink:href="#DejaVuSans-48"/>
      </g>
     </g>
    </g>
    <g id="ytick_6">
     <g id="line2d_13">
      <g>
       <use style="stroke:#000000;stroke-width:0.8;" x="57.6" xlink:href="#m1d7fb12990" y="65.811441"/>
      </g>
     </g>
     <g id="text_15">
      <!-- 0.25 -->
      <g transform="translate(28.334375 69.610659)scale(0.1 -0.1)">
       <use xlink:href="#DejaVuSans-48"/>
       <use x="63.623047" xlink:href="#DejaVuSans-46"/>
       <use x="95.410156" xlink:href="#DejaVuSans-50"/>
       <use x="159.033203" xlink:href="#DejaVuSans-53"/>
      </g>
     </g>
    </g>
    <g id="text_16">
     <!-- $B_{eff}$ $(T)$ -->
     <defs>
      <path d="M 16.890625 72.90625 
L 42.09375 72.90625 
Q 52.34375 72.90625 57.421875 69.09375 
Q 62.5 65.28125 62.5 57.625 
Q 62.5 50.59375 58.125 45.484375 
Q 53.765625 40.375 46.6875 39.3125 
Q 52.734375 37.9375 55.765625 34.078125 
Q 58.796875 30.21875 58.796875 23.78125 
Q 58.796875 12.796875 50.65625 6.390625 
Q 42.53125 0 28.421875 0 
L 2.6875 0 
z
M 19.28125 34.8125 
L 14.109375 8.109375 
L 29.984375 8.109375 
Q 38.921875 8.109375 43.75 12.203125 
Q 48.578125 16.3125 48.578125 23.78125 
Q 48.578125 29.546875 45.375 32.171875 
Q 42.1875 34.8125 35.109375 34.8125 
z
M 25.09375 64.796875 
L 20.796875 42.828125 
L 35.5 42.828125 
Q 43.359375 42.828125 47.78125 46.234375 
Q 52.203125 49.65625 52.203125 55.71875 
Q 52.203125 60.453125 49.21875 62.625 
Q 46.234375 64.796875 39.703125 64.796875 
z
" id="DejaVuSans-Oblique-66"/>
      <path d="M 48.09375 32.234375 
Q 48.25 33.015625 48.3125 33.84375 
Q 48.390625 34.671875 48.390625 35.5 
Q 48.390625 41.453125 44.890625 44.921875 
Q 41.40625 48.390625 35.40625 48.390625 
Q 28.71875 48.390625 23.578125 44.15625 
Q 18.453125 39.9375 15.828125 32.171875 
z
M 55.90625 25.203125 
L 14.109375 25.203125 
Q 13.8125 23.34375 13.71875 22.265625 
Q 13.625 21.1875 13.625 20.40625 
Q 13.625 13.625 17.796875 9.90625 
Q 21.96875 6.203125 29.59375 6.203125 
Q 35.453125 6.203125 40.671875 7.515625 
Q 45.90625 8.84375 50.390625 11.375 
L 48.6875 2.484375 
Q 43.84375 0.53125 38.6875 -0.4375 
Q 33.546875 -1.421875 28.21875 -1.421875 
Q 16.84375 -1.421875 10.71875 4.015625 
Q 4.59375 9.46875 4.59375 19.484375 
Q 4.59375 28.03125 7.640625 35.375 
Q 10.6875 42.71875 16.609375 48.484375 
Q 20.40625 52.09375 25.65625 54.046875 
Q 30.90625 56 36.8125 56 
Q 46.09375 56 51.578125 50.4375 
Q 57.078125 44.875 57.078125 35.5 
Q 57.078125 33.25 56.78125 30.6875 
Q 56.5 28.125 55.90625 25.203125 
z
" id="DejaVuSans-Oblique-101"/>
      <path d="M 47.796875 75.984375 
L 46.390625 68.5 
L 37.796875 68.5 
Q 32.90625 68.5 30.6875 66.578125 
Q 28.46875 64.65625 27.390625 59.515625 
L 26.421875 54.6875 
L 41.21875 54.6875 
L 39.890625 47.703125 
L 25.09375 47.703125 
L 15.828125 0 
L 6.78125 0 
L 16.109375 47.703125 
L 7.515625 47.703125 
L 8.796875 54.6875 
L 17.390625 54.6875 
L 18.109375 58.5 
Q 19.96875 68.171875 24.625 72.078125 
Q 29.296875 75.984375 39.3125 75.984375 
z
" id="DejaVuSans-Oblique-102"/>
      <path d="M 5.90625 72.90625 
L 67.578125 72.90625 
L 66.015625 64.59375 
L 39.984375 64.59375 
L 27.484375 0 
L 17.578125 0 
L 30.078125 64.59375 
L 4.296875 64.59375 
z
" id="DejaVuSans-Oblique-84"/>
     </defs>
     <g transform="translate(22.254687 191.278)rotate(-90)scale(0.1 -0.1)">
      <use transform="translate(0 0.125)" xlink:href="#DejaVuSans-Oblique-66"/>
      <use transform="translate(68.603516 -16.28125)scale(0.7)" xlink:href="#DejaVuSans-Oblique-101"/>
      <use transform="translate(111.669922 -16.28125)scale(0.7)" xlink:href="#DejaVuSans-Oblique-102"/>
      <use transform="translate(136.313477 -16.28125)scale(0.7)" xlink:href="#DejaVuSans-Oblique-102"/>
      <use transform="translate(163.691406 0.125)" xlink:href="#DejaVuSans-32"/>
      <use transform="translate(195.478516 0.125)" xlink:href="#DejaVuSans-40"/>
      <use transform="translate(234.492188 0.125)" xlink:href="#DejaVuSans-Oblique-84"/>
      <use transform="translate(295.576172 0.125)" xlink:href="#DejaVuSans-41"/>
     </g>
    </g>
   </g>
   <g id="line2d_14">
    <path clip-path="url(#p2bb5122cee)" d="M 73.832727 288.806355 
L 77.112066 288.826959 
L 80.391405 288.848344 
L 83.670744 288.870541 
L 86.950083 288.893575 
L 90.229421 288.917486 
L 93.50876 288.942315 
L 96.788099 288.968096 
L 100.067438 288.994879 
L 103.346777 289.022702 
L 106.626116 289.051605 
L 109.905455 289.081645 
L 113.184793 289.112863 
L 116.464132 289.145313 
L 119.743471 289.179052 
L 123.02281 289.21413 
L 126.302149 289.25061 
L 129.581488 289.288544 
L 132.860826 289.327995 
L 136.140165 289.36903 
L 139.419504 289.411714 
L 142.698843 289.456113 
L 145.978182 289.502301 
L 149.257521 289.550347 
L 152.53686 289.600331 
L 155.816198 289.652324 
L 159.095537 289.706409 
L 162.374876 289.76266 
L 165.654215 289.821165 
L 168.933554 289.882004 
L 172.212893 289.945258 
L 175.492231 290.011009 
L 178.77157 290.079344 
L 182.050909 290.150347 
L 185.330248 290.224091 
L 188.609587 290.300659 
L 191.888926 290.380127 
L 195.168264 290.462575 
L 198.447603 290.548064 
L 201.726942 290.636651 
L 205.006281 290.728398 
L 208.28562 290.823349 
L 211.564959 290.92154 
L 214.844298 291.022993 
L 218.123636 291.127718 
L 221.402975 291.23571 
L 224.682314 291.346948 
L 227.961653 291.461383 
L 231.240992 291.578955 
L 234.520331 291.699566 
L 237.799669 291.823106 
L 241.079008 291.949416 
L 244.358347 292.07832 
L 247.637686 292.209606 
L 250.917025 292.343018 
L 254.196364 292.478266 
L 257.475702 292.615015 
L 260.755041 292.752895 
L 264.03438 292.891493 
L 267.313719 293.030349 
L 270.593058 293.168964 
L 273.872397 293.306805 
L 277.151736 293.443293 
L 280.431074 293.577818 
L 283.710413 293.709749 
L 286.989752 293.838425 
L 290.269091 293.96317 
L 293.54843 294.083298 
L 296.827769 294.198127 
L 300.107107 294.306978 
L 303.386446 294.409192 
L 306.665785 294.504138 
L 309.945124 294.591215 
L 313.224463 294.669859 
L 316.503802 294.739572 
L 319.78314 294.799916 
L 323.062479 294.850492 
L 326.341818 294.89096 
L 329.621157 294.921093 
L 332.900496 294.940681 
L 336.179835 294.949604 
L 339.459174 294.947827 
L 342.738512 294.93538 
L 346.017851 294.912366 
L 349.29719 294.878924 
L 352.576529 294.835304 
L 355.855868 294.781816 
L 359.135207 294.718805 
L 362.414545 294.646713 
L 365.693884 294.566002 
L 368.973223 294.477205 
L 372.252562 294.380888 
L 375.531901 294.277659 
L 378.81124 294.168144 
L 382.090579 294.052997 
L 385.369917 293.932879 
L 388.649256 293.808452 
L 391.928595 293.68037 
L 395.207934 293.549286 
L 398.487273 293.415828 
" style="fill:none;stroke:#1f77b4;stroke-linecap:square;stroke-width:1.5;"/>
   </g>
   <g id="line2d_15">
    <path clip-path="url(#p2bb5122cee)" d="M 73.832727 287.742826 
L 77.112066 287.727188 
L 80.391405 287.710752 
L 83.670744 287.693469 
L 86.950083 287.675288 
L 90.229421 287.656154 
L 93.50876 287.63601 
L 96.788099 287.614794 
L 100.067438 287.592441 
L 103.346777 287.568881 
L 106.626116 287.544038 
L 109.905455 287.517832 
L 113.184793 287.490177 
L 116.464132 287.460984 
L 119.743471 287.430152 
L 123.02281 287.39758 
L 126.302149 287.363154 
L 129.581488 287.326758 
L 132.860826 287.288264 
L 136.140165 287.247535 
L 139.419504 287.204427 
L 142.698843 287.158787 
L 145.978182 287.11045 
L 149.257521 287.059239 
L 152.53686 287.004969 
L 155.816198 286.947442 
L 159.095537 286.886445 
L 162.374876 286.821754 
L 165.654215 286.753131 
L 168.933554 286.680327 
L 172.212893 286.603073 
L 175.492231 286.521091 
L 178.77157 286.434087 
L 182.050909 286.34175 
L 185.330248 286.243761 
L 188.609587 286.139785 
L 191.888926 286.029477 
L 195.168264 285.912481 
L 198.447603 285.78844 
L 201.726942 285.656989 
L 205.006281 285.517773 
L 208.28562 285.370434 
L 211.564959 285.214643 
L 214.844298 285.050089 
L 218.123636 284.876506 
L 221.402975 284.693675 
L 224.682314 284.501453 
L 227.961653 284.299786 
L 231.240992 284.088741 
L 234.520331 283.868529 
L 237.799669 283.639552 
L 241.079008 283.402429 
L 244.358347 283.158051 
L 247.637686 282.907626 
L 250.917025 282.652739 
L 254.196364 282.395414 
L 257.475702 282.138157 
L 260.755041 281.884032 
L 264.03438 281.636699 
L 267.313719 281.400466 
L 270.593058 281.180293 
L 273.872397 280.981802 
L 277.151736 280.811225 
L 280.431074 280.675322 
L 283.710413 280.581234 
L 286.989752 280.5363 
L 290.269091 280.547788 
L 293.54843 280.622608 
L 296.827769 280.766948 
L 300.107107 280.985939 
L 303.386446 281.283278 
L 306.665785 281.660943 
L 309.945124 282.118948 
L 313.224463 282.655192 
L 316.503802 283.265432 
L 319.78314 283.943359 
L 323.062479 284.680772 
L 326.341818 285.467808 
L 329.621157 286.293262 
L 332.900496 287.144914 
L 336.179835 288.009858 
L 339.459174 288.874855 
L 342.738512 289.726662 
L 346.017851 290.552366 
L 349.29719 291.339729 
L 352.576529 292.077537 
L 355.855868 292.75592 
L 359.135207 293.36665 
L 362.414545 293.903403 
L 365.693884 294.361911 
L 368.973223 294.740049 
L 372.252562 295.037803 
L 375.531901 295.257122 
L 378.81124 295.401685 
L 382.090579 295.476586 
L 385.369917 295.488 
L 388.649256 295.442805 
L 391.928595 295.348256 
L 395.207934 295.211673 
L 398.487273 295.040186 
" style="fill:none;stroke:#ff7f0e;stroke-linecap:square;stroke-width:1.5;"/>
   </g>
   <g id="line2d_16">
    <path clip-path="url(#p2bb5122cee)" d="M 73.832727 66.238588 
L 77.112066 66.249029 
L 80.391405 66.259762 
L 83.670744 66.270787 
L 86.950083 66.282103 
L 90.229421 66.293723 
L 93.50876 66.305662 
L 96.788099 66.317893 
L 100.067438 66.330428 
L 103.346777 66.343281 
L 106.626116 66.356439 
L 109.905455 66.369901 
L 113.184793 66.383655 
L 116.464132 66.397701 
L 119.743471 66.412025 
L 123.02281 66.426627 
L 126.302149 66.441481 
L 129.581488 66.45656 
L 132.860826 66.471852 
L 136.140165 66.487315 
L 139.419504 66.502911 
L 142.698843 66.518613 
L 145.978182 66.534368 
L 149.257521 66.550096 
L 152.53686 66.565745 
L 155.816198 66.581222 
L 159.095537 66.596434 
L 162.374876 66.611275 
L 165.654215 66.625612 
L 168.933554 66.639313 
L 172.212893 66.652179 
L 175.492231 66.664025 
L 178.77157 66.674639 
L 182.050909 66.683755 
L 185.330248 66.69107 
L 188.609587 66.696264 
L 191.888926 66.698941 
L 195.168264 66.698676 
L 198.447603 66.694966 
L 201.726942 66.687267 
L 205.006281 66.674917 
L 208.28562 66.657214 
L 211.564959 66.63335 
L 214.844298 66.602423 
L 218.123636 66.5634 
L 221.402975 66.515155 
L 224.682314 66.456401 
L 227.961653 66.385749 
L 231.240992 66.301647 
L 234.520331 66.202387 
L 237.799669 66.086113 
L 241.079008 65.950824 
L 244.358347 65.794347 
L 247.637686 65.614457 
L 250.917025 65.408754 
L 254.196364 65.174801 
L 257.475702 64.910186 
L 260.755041 64.612525 
L 264.03438 64.279616 
L 267.313719 63.909553 
L 270.593058 63.50085 
L 273.872397 63.052529 
L 277.151736 62.564482 
L 280.431074 62.037425 
L 283.710413 61.473294 
L 286.989752 60.875267 
L 290.269091 60.247956 
L 293.54843 59.597483 
L 296.827769 58.93148 
L 300.107107 58.259011 
L 303.386446 57.590385 
L 306.665785 56.936864 
L 309.945124 56.310348 
L 313.224463 55.722869 
L 316.503802 55.186325 
L 319.78314 54.711847 
L 323.062479 54.309478 
L 326.341818 53.987859 
L 329.621157 53.754012 
L 332.900496 53.613026 
L 336.179835 53.568 
L 339.459174 53.619995 
L 342.738512 53.767952 
L 346.017851 54.008795 
L 349.29719 54.337411 
L 352.576529 54.746828 
L 355.855868 55.228435 
L 359.135207 55.772135 
L 362.414545 56.366823 
L 365.693884 57.000626 
L 368.973223 57.661514 
L 372.252562 58.337614 
L 375.531901 59.017662 
L 378.81124 59.691324 
L 382.090579 60.349588 
L 385.369917 60.984823 
L 388.649256 61.590853 
L 391.928595 62.163147 
L 395.207934 62.698446 
L 398.487273 63.194894 
" style="fill:none;stroke:#2ca02c;stroke-linecap:square;stroke-width:1.5;"/>
   </g>
   <g id="patch_3">
    <path d="M 57.6 307.584 
L 57.6 41.472 
" style="fill:none;stroke:#000000;stroke-linecap:square;stroke-linejoin:miter;stroke-width:0.8;"/>
   </g>
   <g id="patch_4">
    <path d="M 414.72 307.584 
L 414.72 41.472 
" style="fill:none;stroke:#000000;stroke-linecap:square;stroke-linejoin:miter;stroke-width:0.8;"/>
   </g>
   <g id="patch_5">
    <path d="M 57.6 307.584 
L 414.72 307.584 
" style="fill:none;stroke:#000000;stroke-linecap:square;stroke-linejoin:miter;stroke-width:0.8;"/>
   </g>
   <g id="patch_6">
    <path d="M 57.6 41.472 
L 414.72 41.472 
" style="fill:none;stroke:#000000;stroke-linecap:square;stroke-linejoin:miter;stroke-width:0.8;"/>
   </g>
   <g id="legend_1">
    <g id="patch_7">
     <path d="M 364.42 198.555344 
L 407.72 198.555344 
Q 409.72 198.555344 409.72 196.555344 
L 409.72 152.500656 
Q 409.72 150.500656 407.72 150.500656 
L 364.42 150.500656 
Q 362.42 150.500656 362.42 152.500656 
L 362.42 196.555344 
Q 362.42 198.555344 364.42 198.555344 
z
" style="fill:#ffffff;opacity:0.8;stroke:#cccccc;stroke-linejoin:miter;"/>
    </g>
    <g id="line2d_17">
     <path d="M 366.42 158.599094 
L 386.42 158.599094 
" style="fill:none;stroke:#1f77b4;stroke-linecap:square;stroke-width:1.5;"/>
    </g>
    <g id="line2d_18"/>
    <g id="text_17">
     <!-- $B_x$ -->
     <defs>
      <path d="M 60.015625 54.6875 
L 34.90625 27.875 
L 50.296875 0 
L 39.984375 0 
L 28.421875 21.6875 
L 8.296875 0 
L -2.59375 0 
L 24.3125 28.8125 
L 10.015625 54.6875 
L 20.3125 54.6875 
L 30.8125 34.90625 
L 49.125 54.6875 
z
" id="DejaVuSans-Oblique-120"/>
     </defs>
     <g transform="translate(394.42 162.099094)scale(0.1 -0.1)">
      <use transform="translate(0 0.09375)" xlink:href="#DejaVuSans-Oblique-66"/>
      <use transform="translate(68.603516 -16.3125)scale(0.7)" xlink:href="#DejaVuSans-Oblique-120"/>
     </g>
    </g>
    <g id="line2d_19">
     <path d="M 366.42 173.277219 
L 386.42 173.277219 
" style="fill:none;stroke:#ff7f0e;stroke-linecap:square;stroke-width:1.5;"/>
    </g>
    <g id="line2d_20"/>
    <g id="text_18">
     <!-- $B_y$ -->
     <defs>
      <path d="M 24.8125 -5.078125 
Q 18.5625 -15.578125 14.625 -18.1875 
Q 10.6875 -20.796875 4.59375 -20.796875 
L -2.484375 -20.796875 
L -0.984375 -13.28125 
L 4.203125 -13.28125 
Q 7.953125 -13.28125 10.59375 -11.234375 
Q 13.234375 -9.1875 16.5 -3.21875 
L 19.28125 2 
L 7.171875 54.6875 
L 16.703125 54.6875 
L 25.78125 12.796875 
L 50.875 54.6875 
L 60.296875 54.6875 
z
" id="DejaVuSans-Oblique-121"/>
     </defs>
     <g transform="translate(394.42 176.777219)scale(0.1 -0.1)">
      <use transform="translate(0 0.09375)" xlink:href="#DejaVuSans-Oblique-66"/>
      <use transform="translate(68.603516 -16.3125)scale(0.7)" xlink:href="#DejaVuSans-Oblique-121"/>
     </g>
    </g>
    <g id="line2d_21">
     <path d="M 366.42 188.975656 
L 386.42 188.975656 
" style="fill:none;stroke:#2ca02c;stroke-linecap:square;stroke-width:1.5;"/>
    </g>
    <g id="line2d_22"/>
    <g id="text_19">
     <!-- $B_z$ -->
     <g transform="translate(394.42 192.475656)scale(0.1 -0.1)">
      <use transform="translate(0 0.09375)" xlink:href="#DejaVuSans-Oblique-66"/>
      <use transform="translate(68.603516 -16.3125)scale(0.7)" xlink:href="#DejaVuSans-Oblique-122"/>
     </g>
    </g>
   </g>
  </g>
 </g>
 <defs>
  <clipPath id="p2bb5122cee">
   <rect height="266.112" width="357.12" x="57.6" y="41.472"/>
  </clipPath>
 </defs>
</svg>
