<?xml version="1.0" encoding="utf-8" standalone="no"?>
<!DOCTYPE svg PUBLIC "-//W3C//DTD SVG 1.1//EN"
  "http://www.w3.org/Graphics/SVG/1.1/DTD/svg11.dtd">
<!-- Created with matplotlib (https://matplotlib.org/) -->
<svg height="345.6pt" version="1.1" viewBox="0 0 460.8 345.6" width="460.8pt" xmlns="http://www.w3.org/2000/svg" xmlns:xlink="http://www.w3.org/1999/xlink">
 <defs>
  <style type="text/css">
*{stroke-linecap:butt;stroke-linejoin:round;}
  </style>
 </defs>
 <g id="figure_1">
  <g id="patch_1">
   <path d="M 0 345.6 
L 460.8 345.6 
L 460.8 0 
L 0 0 
z
" style="fill:#ffffff;"/>
  </g>
  <g id="axes_1">
   <g id="patch_2">
    <path d="M 57.6 307.584 
L 414.72 307.584 
L 414.72 41.472 
L 57.6 41.472 
z
" style="fill:#ffffff;"/>
   </g>
   <g id="matplotlib.axis_1">
    <g id="xtick_1">
     <g id="line2d_1">
      <defs>
       <path d="M 0 0 
L 0 3.5 
" id="m59d4ff0a68" style="stroke:#000000;stroke-width:0.8;"/>
      </defs>
      <g>
       <use style="stroke:#000000;stroke-width:0.8;" x="88.589752" xlink:href="#m59d4ff0a68" y="307.584"/>
      </g>
     </g>
     <g id="text_1">
      <!-- −7.5 -->
      <defs>
       <path d="M 10.59375 35.5 
L 73.1875 35.5 
L 73.1875 27.203125 
L 10.59375 27.203125 
z
" id="DejaVuSans-8722"/>
       <path d="M 8.203125 72.90625 
L 55.078125 72.90625 
L 55.078125 68.703125 
L 28.609375 0 
L 18.3125 0 
L 43.21875 64.59375 
L 8.203125 64.59375 
z
" id="DejaVuSans-55"/>
       <path d="M 10.6875 12.40625 
L 21 12.40625 
L 21 0 
L 10.6875 0 
z
" id="DejaVuSans-46"/>
       <path d="M 10.796875 72.90625 
L 49.515625 72.90625 
L 49.515625 64.59375 
L 19.828125 64.59375 
L 19.828125 46.734375 
Q 21.96875 47.46875 24.109375 47.828125 
Q 26.265625 48.1875 28.421875 48.1875 
Q 40.625 48.1875 47.75 41.5 
Q 54.890625 34.8125 54.890625 23.390625 
Q 54.890625 11.625 47.5625 5.09375 
Q 40.234375 -1.421875 26.90625 -1.421875 
Q 22.3125 -1.421875 17.546875 -0.640625 
Q 12.796875 0.140625 7.71875 1.703125 
L 7.71875 11.625 
Q 12.109375 9.234375 16.796875 8.0625 
Q 21.484375 6.890625 26.703125 6.890625 
Q 35.15625 6.890625 40.078125 11.328125 
Q 45.015625 15.765625 45.015625 23.390625 
Q 45.015625 31 40.078125 35.4375 
Q 35.15625 39.890625 26.703125 39.890625 
Q 22.75 39.890625 18.8125 39.015625 
Q 14.890625 38.140625 10.796875 36.28125 
z
" id="DejaVuSans-53"/>
      </defs>
      <g transform="translate(76.448346 322.182437)scale(0.1 -0.1)">
       <use xlink:href="#DejaVuSans-8722"/>
       <use x="83.789062" xlink:href="#DejaVuSans-55"/>
       <use x="147.412109" xlink:href="#DejaVuSans-46"/>
       <use x="179.199219" xlink:href="#DejaVuSans-53"/>
      </g>
     </g>
    </g>
    <g id="xtick_2">
     <g id="line2d_2">
      <g>
       <use style="stroke:#000000;stroke-width:0.8;" x="137.779835" xlink:href="#m59d4ff0a68" y="307.584"/>
      </g>
     </g>
     <g id="text_2">
      <!-- −5.0 -->
      <defs>
       <path d="M 31.78125 66.40625 
Q 24.171875 66.40625 20.328125 58.90625 
Q 16.5 51.421875 16.5 36.375 
Q 16.5 21.390625 20.328125 13.890625 
Q 24.171875 6.390625 31.78125 6.390625 
Q 39.453125 6.390625 43.28125 13.890625 
Q 47.125 21.390625 47.125 36.375 
Q 47.125 51.421875 43.28125 58.90625 
Q 39.453125 66.40625 31.78125 66.40625 
z
M 31.78125 74.21875 
Q 44.046875 74.21875 50.515625 64.515625 
Q 56.984375 54.828125 56.984375 36.375 
Q 56.984375 17.96875 50.515625 8.265625 
Q 44.046875 -1.421875 31.78125 -1.421875 
Q 19.53125 -1.421875 13.0625 8.265625 
Q 6.59375 17.96875 6.59375 36.375 
Q 6.59375 54.828125 13.0625 64.515625 
Q 19.53125 74.21875 31.78125 74.21875 
z
" id="DejaVuSans-48"/>
      </defs>
      <g transform="translate(125.638428 322.182437)scale(0.1 -0.1)">
       <use xlink:href="#DejaVuSans-8722"/>
       <use x="83.789062" xlink:href="#DejaVuSans-53"/>
       <use x="147.412109" xlink:href="#DejaVuSans-46"/>
       <use x="179.199219" xlink:href="#DejaVuSans-48"/>
      </g>
     </g>
    </g>
    <g id="xtick_3">
     <g id="line2d_3">
      <g>
       <use style="stroke:#000000;stroke-width:0.8;" x="186.969917" xlink:href="#m59d4ff0a68" y="307.584"/>
      </g>
     </g>
     <g id="text_3">
      <!-- −2.5 -->
      <defs>
       <path d="M 19.1875 8.296875 
L 53.609375 8.296875 
L 53.609375 0 
L 7.328125 0 
L 7.328125 8.296875 
Q 12.9375 14.109375 22.625 23.890625 
Q 32.328125 33.6875 34.8125 36.53125 
Q 39.546875 41.84375 41.421875 45.53125 
Q 43.3125 49.21875 43.3125 52.78125 
Q 43.3125 58.59375 39.234375 62.25 
Q 35.15625 65.921875 28.609375 65.921875 
Q 23.96875 65.921875 18.8125 64.3125 
Q 13.671875 62.703125 7.8125 59.421875 
L 7.8125 69.390625 
Q 13.765625 71.78125 18.9375 73 
Q 24.125 74.21875 28.421875 74.21875 
Q 39.75 74.21875 46.484375 68.546875 
Q 53.21875 62.890625 53.21875 53.421875 
Q 53.21875 48.921875 51.53125 44.890625 
Q 49.859375 40.875 45.40625 35.40625 
Q 44.1875 33.984375 37.640625 27.21875 
Q 31.109375 20.453125 19.1875 8.296875 
z
" id="DejaVuSans-50"/>
      </defs>
      <g transform="translate(174.828511 322.182437)scale(0.1 -0.1)">
       <use xlink:href="#DejaVuSans-8722"/>
       <use x="83.789062" xlink:href="#DejaVuSans-50"/>
       <use x="147.412109" xlink:href="#DejaVuSans-46"/>
       <use x="179.199219" xlink:href="#DejaVuSans-53"/>
      </g>
     </g>
    </g>
    <g id="xtick_4">
     <g id="line2d_4">
      <g>
       <use style="stroke:#000000;stroke-width:0.8;" x="236.16" xlink:href="#m59d4ff0a68" y="307.584"/>
      </g>
     </g>
     <g id="text_4">
      <!-- 0.0 -->
      <g transform="translate(228.208438 322.182437)scale(0.1 -0.1)">
       <use xlink:href="#DejaVuSans-48"/>
       <use x="63.623047" xlink:href="#DejaVuSans-46"/>
       <use x="95.410156" xlink:href="#DejaVuSans-48"/>
      </g>
     </g>
    </g>
    <g id="xtick_5">
     <g id="line2d_5">
      <g>
       <use style="stroke:#000000;stroke-width:0.8;" x="285.350083" xlink:href="#m59d4ff0a68" y="307.584"/>
      </g>
     </g>
     <g id="text_5">
      <!-- 2.5 -->
      <g transform="translate(277.39852 322.182437)scale(0.1 -0.1)">
       <use xlink:href="#DejaVuSans-50"/>
       <use x="63.623047" xlink:href="#DejaVuSans-46"/>
       <use x="95.410156" xlink:href="#DejaVuSans-53"/>
      </g>
     </g>
    </g>
    <g id="xtick_6">
     <g id="line2d_6">
      <g>
       <use style="stroke:#000000;stroke-width:0.8;" x="334.540165" xlink:href="#m59d4ff0a68" y="307.584"/>
      </g>
     </g>
     <g id="text_6">
      <!-- 5.0 -->
      <g transform="translate(326.588603 322.182437)scale(0.1 -0.1)">
       <use xlink:href="#DejaVuSans-53"/>
       <use x="63.623047" xlink:href="#DejaVuSans-46"/>
       <use x="95.410156" xlink:href="#DejaVuSans-48"/>
      </g>
     </g>
    </g>
    <g id="xtick_7">
     <g id="line2d_7">
      <g>
       <use style="stroke:#000000;stroke-width:0.8;" x="383.730248" xlink:href="#m59d4ff0a68" y="307.584"/>
      </g>
     </g>
     <g id="text_7">
      <!-- 7.5 -->
      <g transform="translate(375.778685 322.182437)scale(0.1 -0.1)">
       <use xlink:href="#DejaVuSans-55"/>
       <use x="63.623047" xlink:href="#DejaVuSans-46"/>
       <use x="95.410156" xlink:href="#DejaVuSans-53"/>
      </g>
     </g>
    </g>
    <g id="text_8">
     <!-- $x$ (a.u.) -->
     <defs>
      <path d="M 60.015625 54.6875 
L 34.90625 27.875 
L 50.296875 0 
L 39.984375 0 
L 28.421875 21.6875 
L 8.296875 0 
L -2.59375 0 
L 24.3125 28.8125 
L 10.015625 54.6875 
L 20.3125 54.6875 
L 30.8125 34.90625 
L 49.125 54.6875 
z
" id="DejaVuSans-Oblique-120"/>
      <path id="DejaVuSans-32"/>
      <path d="M 31 75.875 
Q 24.46875 64.65625 21.28125 53.65625 
Q 18.109375 42.671875 18.109375 31.390625 
Q 18.109375 20.125 21.3125 9.0625 
Q 24.515625 -2 31 -13.1875 
L 23.1875 -13.1875 
Q 15.875 -1.703125 12.234375 9.375 
Q 8.59375 20.453125 8.59375 31.390625 
Q 8.59375 42.28125 12.203125 53.3125 
Q 15.828125 64.359375 23.1875 75.875 
z
" id="DejaVuSans-40"/>
      <path d="M 34.28125 27.484375 
Q 23.390625 27.484375 19.1875 25 
Q 14.984375 22.515625 14.984375 16.5 
Q 14.984375 11.71875 18.140625 8.90625 
Q 21.296875 6.109375 26.703125 6.109375 
Q 34.1875 6.109375 38.703125 11.40625 
Q 43.21875 16.703125 43.21875 25.484375 
L 43.21875 27.484375 
z
M 52.203125 31.203125 
L 52.203125 0 
L 43.21875 0 
L 43.21875 8.296875 
Q 40.140625 3.328125 35.546875 0.953125 
Q 30.953125 -1.421875 24.3125 -1.421875 
Q 15.921875 -1.421875 10.953125 3.296875 
Q 6 8.015625 6 15.921875 
Q 6 25.140625 12.171875 29.828125 
Q 18.359375 34.515625 30.609375 34.515625 
L 43.21875 34.515625 
L 43.21875 35.40625 
Q 43.21875 41.609375 39.140625 45 
Q 35.0625 48.390625 27.6875 48.390625 
Q 23 48.390625 18.546875 47.265625 
Q 14.109375 46.140625 10.015625 43.890625 
L 10.015625 52.203125 
Q 14.9375 54.109375 19.578125 55.046875 
Q 24.21875 56 28.609375 56 
Q 40.484375 56 46.34375 49.84375 
Q 52.203125 43.703125 52.203125 31.203125 
z
" id="DejaVuSans-97"/>
      <path d="M 8.5 21.578125 
L 8.5 54.6875 
L 17.484375 54.6875 
L 17.484375 21.921875 
Q 17.484375 14.15625 20.5 10.265625 
Q 23.53125 6.390625 29.59375 6.390625 
Q 36.859375 6.390625 41.078125 11.03125 
Q 45.3125 15.671875 45.3125 23.6875 
L 45.3125 54.6875 
L 54.296875 54.6875 
L 54.296875 0 
L 45.3125 0 
L 45.3125 8.40625 
Q 42.046875 3.421875 37.71875 1 
Q 33.40625 -1.421875 27.6875 -1.421875 
Q 18.265625 -1.421875 13.375 4.4375 
Q 8.5 10.296875 8.5 21.578125 
z
M 31.109375 56 
z
" id="DejaVuSans-117"/>
      <path d="M 8.015625 75.875 
L 15.828125 75.875 
Q 23.140625 64.359375 26.78125 53.3125 
Q 30.421875 42.28125 30.421875 31.390625 
Q 30.421875 20.453125 26.78125 9.375 
Q 23.140625 -1.703125 15.828125 -13.1875 
L 8.015625 -13.1875 
Q 14.5 -2 17.703125 9.0625 
Q 20.90625 20.125 20.90625 31.390625 
Q 20.90625 42.671875 17.703125 53.65625 
Q 14.5 64.65625 8.015625 75.875 
z
" id="DejaVuSans-41"/>
     </defs>
     <g transform="translate(218.26 335.860562)scale(0.1 -0.1)">
      <use transform="translate(0 0.125)" xlink:href="#DejaVuSans-Oblique-120"/>
      <use transform="translate(59.179688 0.125)" xlink:href="#DejaVuSans-32"/>
      <use transform="translate(90.966797 0.125)" xlink:href="#DejaVuSans-40"/>
      <use transform="translate(129.980469 0.125)" xlink:href="#DejaVuSans-97"/>
      <use transform="translate(191.259766 0.125)" xlink:href="#DejaVuSans-46"/>
      <use transform="translate(223.046875 0.125)" xlink:href="#DejaVuSans-117"/>
      <use transform="translate(286.425781 0.125)" xlink:href="#DejaVuSans-46"/>
      <use transform="translate(318.212891 0.125)" xlink:href="#DejaVuSans-41"/>
     </g>
    </g>
    <g id="text_9">
     <!-- 1e−8 -->
     <defs>
      <path d="M 12.40625 8.296875 
L 28.515625 8.296875 
L 28.515625 63.921875 
L 10.984375 60.40625 
L 10.984375 69.390625 
L 28.421875 72.90625 
L 38.28125 72.90625 
L 38.28125 8.296875 
L 54.390625 8.296875 
L 54.390625 0 
L 12.40625 0 
z
" id="DejaVuSans-49"/>
      <path d="M 56.203125 29.59375 
L 56.203125 25.203125 
L 14.890625 25.203125 
Q 15.484375 15.921875 20.484375 11.0625 
Q 25.484375 6.203125 34.421875 6.203125 
Q 39.59375 6.203125 44.453125 7.46875 
Q 49.3125 8.734375 54.109375 11.28125 
L 54.109375 2.78125 
Q 49.265625 0.734375 44.1875 -0.34375 
Q 39.109375 -1.421875 33.890625 -1.421875 
Q 20.796875 -1.421875 13.15625 6.1875 
Q 5.515625 13.8125 5.515625 26.8125 
Q 5.515625 40.234375 12.765625 48.109375 
Q 20.015625 56 32.328125 56 
Q 43.359375 56 49.78125 48.890625 
Q 56.203125 41.796875 56.203125 29.59375 
z
M 47.21875 32.234375 
Q 47.125 39.59375 43.09375 43.984375 
Q 39.0625 48.390625 32.421875 48.390625 
Q 24.90625 48.390625 20.390625 44.140625 
Q 15.875 39.890625 15.1875 32.171875 
z
" id="DejaVuSans-101"/>
      <path d="M 31.78125 34.625 
Q 24.75 34.625 20.71875 30.859375 
Q 16.703125 27.09375 16.703125 20.515625 
Q 16.703125 13.921875 20.71875 10.15625 
Q 24.75 6.390625 31.78125 6.390625 
Q 38.8125 6.390625 42.859375 10.171875 
Q 46.921875 13.96875 46.921875 20.515625 
Q 46.921875 27.09375 42.890625 30.859375 
Q 38.875 34.625 31.78125 34.625 
z
M 21.921875 38.8125 
Q 15.578125 40.375 12.03125 44.71875 
Q 8.5 49.078125 8.5 55.328125 
Q 8.5 64.0625 14.71875 69.140625 
Q 20.953125 74.21875 31.78125 74.21875 
Q 42.671875 74.21875 48.875 69.140625 
Q 55.078125 64.0625 55.078125 55.328125 
Q 55.078125 49.078125 51.53125 44.71875 
Q 48 40.375 41.703125 38.8125 
Q 48.828125 37.15625 52.796875 32.3125 
Q 56.78125 27.484375 56.78125 20.515625 
Q 56.78125 9.90625 50.3125 4.234375 
Q 43.84375 -1.421875 31.78125 -1.421875 
Q 19.734375 -1.421875 13.25 4.234375 
Q 6.78125 9.90625 6.78125 20.515625 
Q 6.78125 27.484375 10.78125 32.3125 
Q 14.796875 37.15625 21.921875 38.8125 
z
M 18.3125 54.390625 
Q 18.3125 48.734375 21.84375 45.5625 
Q 25.390625 42.390625 31.78125 42.390625 
Q 38.140625 42.390625 41.71875 45.5625 
Q 45.3125 48.734375 45.3125 54.390625 
Q 45.3125 60.0625 41.71875 63.234375 
Q 38.140625 66.40625 31.78125 66.40625 
Q 25.390625 66.40625 21.84375 63.234375 
Q 18.3125 60.0625 18.3125 54.390625 
z
" id="DejaVuSans-56"/>
     </defs>
     <g transform="translate(387.462188 334.860562)scale(0.1 -0.1)">
      <use xlink:href="#DejaVuSans-49"/>
      <use x="63.623047" xlink:href="#DejaVuSans-101"/>
      <use x="125.146484" xlink:href="#DejaVuSans-8722"/>
      <use x="208.935547" xlink:href="#DejaVuSans-56"/>
     </g>
    </g>
   </g>
   <g id="matplotlib.axis_2">
    <g id="ytick_1">
     <g id="line2d_8">
      <defs>
       <path d="M 0 0 
L -3.5 0 
" id="mc7d3ce28e4" style="stroke:#000000;stroke-width:0.8;"/>
      </defs>
      <g>
       <use style="stroke:#000000;stroke-width:0.8;" x="57.6" xlink:href="#mc7d3ce28e4" y="295.722258"/>
      </g>
     </g>
     <g id="text_10">
      <!-- 0.0000 -->
      <g transform="translate(15.609375 299.521477)scale(0.1 -0.1)">
       <use xlink:href="#DejaVuSans-48"/>
       <use x="63.623047" xlink:href="#DejaVuSans-46"/>
       <use x="95.410156" xlink:href="#DejaVuSans-48"/>
       <use x="159.033203" xlink:href="#DejaVuSans-48"/>
       <use x="222.65625" xlink:href="#DejaVuSans-48"/>
       <use x="286.279297" xlink:href="#DejaVuSans-48"/>
      </g>
     </g>
    </g>
    <g id="ytick_2">
     <g id="line2d_9">
      <g>
       <use style="stroke:#000000;stroke-width:0.8;" x="57.6" xlink:href="#mc7d3ce28e4" y="265.142654"/>
      </g>
     </g>
     <g id="text_11">
      <!-- 0.0025 -->
      <g transform="translate(15.609375 268.941872)scale(0.1 -0.1)">
       <use xlink:href="#DejaVuSans-48"/>
       <use x="63.623047" xlink:href="#DejaVuSans-46"/>
       <use x="95.410156" xlink:href="#DejaVuSans-48"/>
       <use x="159.033203" xlink:href="#DejaVuSans-48"/>
       <use x="222.65625" xlink:href="#DejaVuSans-50"/>
       <use x="286.279297" xlink:href="#DejaVuSans-53"/>
      </g>
     </g>
    </g>
    <g id="ytick_3">
     <g id="line2d_10">
      <g>
       <use style="stroke:#000000;stroke-width:0.8;" x="57.6" xlink:href="#mc7d3ce28e4" y="234.563049"/>
      </g>
     </g>
     <g id="text_12">
      <!-- 0.0050 -->
      <g transform="translate(15.609375 238.362268)scale(0.1 -0.1)">
       <use xlink:href="#DejaVuSans-48"/>
       <use x="63.623047" xlink:href="#DejaVuSans-46"/>
       <use x="95.410156" xlink:href="#DejaVuSans-48"/>
       <use x="159.033203" xlink:href="#DejaVuSans-48"/>
       <use x="222.65625" xlink:href="#DejaVuSans-53"/>
       <use x="286.279297" xlink:href="#DejaVuSans-48"/>
      </g>
     </g>
    </g>
    <g id="ytick_4">
     <g id="line2d_11">
      <g>
       <use style="stroke:#000000;stroke-width:0.8;" x="57.6" xlink:href="#mc7d3ce28e4" y="203.983444"/>
      </g>
     </g>
     <g id="text_13">
      <!-- 0.0075 -->
      <g transform="translate(15.609375 207.782663)scale(0.1 -0.1)">
       <use xlink:href="#DejaVuSans-48"/>
       <use x="63.623047" xlink:href="#DejaVuSans-46"/>
       <use x="95.410156" xlink:href="#DejaVuSans-48"/>
       <use x="159.033203" xlink:href="#DejaVuSans-48"/>
       <use x="222.65625" xlink:href="#DejaVuSans-55"/>
       <use x="286.279297" xlink:href="#DejaVuSans-53"/>
      </g>
     </g>
    </g>
    <g id="ytick_5">
     <g id="line2d_12">
      <g>
       <use style="stroke:#000000;stroke-width:0.8;" x="57.6" xlink:href="#mc7d3ce28e4" y="173.403839"/>
      </g>
     </g>
     <g id="text_14">
      <!-- 0.0100 -->
      <g transform="translate(15.609375 177.203058)scale(0.1 -0.1)">
       <use xlink:href="#DejaVuSans-48"/>
       <use x="63.623047" xlink:href="#DejaVuSans-46"/>
       <use x="95.410156" xlink:href="#DejaVuSans-48"/>
       <use x="159.033203" xlink:href="#DejaVuSans-49"/>
       <use x="222.65625" xlink:href="#DejaVuSans-48"/>
       <use x="286.279297" xlink:href="#DejaVuSans-48"/>
      </g>
     </g>
    </g>
    <g id="ytick_6">
     <g id="line2d_13">
      <g>
       <use style="stroke:#000000;stroke-width:0.8;" x="57.6" xlink:href="#mc7d3ce28e4" y="142.824234"/>
      </g>
     </g>
     <g id="text_15">
      <!-- 0.0125 -->
      <g transform="translate(15.609375 146.623453)scale(0.1 -0.1)">
       <use xlink:href="#DejaVuSans-48"/>
       <use x="63.623047" xlink:href="#DejaVuSans-46"/>
       <use x="95.410156" xlink:href="#DejaVuSans-48"/>
       <use x="159.033203" xlink:href="#DejaVuSans-49"/>
       <use x="222.65625" xlink:href="#DejaVuSans-50"/>
       <use x="286.279297" xlink:href="#DejaVuSans-53"/>
      </g>
     </g>
    </g>
    <g id="ytick_7">
     <g id="line2d_14">
      <g>
       <use style="stroke:#000000;stroke-width:0.8;" x="57.6" xlink:href="#mc7d3ce28e4" y="112.24463"/>
      </g>
     </g>
     <g id="text_16">
      <!-- 0.0150 -->
      <g transform="translate(15.609375 116.043848)scale(0.1 -0.1)">
       <use xlink:href="#DejaVuSans-48"/>
       <use x="63.623047" xlink:href="#DejaVuSans-46"/>
       <use x="95.410156" xlink:href="#DejaVuSans-48"/>
       <use x="159.033203" xlink:href="#DejaVuSans-49"/>
       <use x="222.65625" xlink:href="#DejaVuSans-53"/>
       <use x="286.279297" xlink:href="#DejaVuSans-48"/>
      </g>
     </g>
    </g>
    <g id="ytick_8">
     <g id="line2d_15">
      <g>
       <use style="stroke:#000000;stroke-width:0.8;" x="57.6" xlink:href="#mc7d3ce28e4" y="81.665025"/>
      </g>
     </g>
     <g id="text_17">
      <!-- 0.0175 -->
      <g transform="translate(15.609375 85.464244)scale(0.1 -0.1)">
       <use xlink:href="#DejaVuSans-48"/>
       <use x="63.623047" xlink:href="#DejaVuSans-46"/>
       <use x="95.410156" xlink:href="#DejaVuSans-48"/>
       <use x="159.033203" xlink:href="#DejaVuSans-49"/>
       <use x="222.65625" xlink:href="#DejaVuSans-55"/>
       <use x="286.279297" xlink:href="#DejaVuSans-53"/>
      </g>
     </g>
    </g>
    <g id="ytick_9">
     <g id="line2d_16">
      <g>
       <use style="stroke:#000000;stroke-width:0.8;" x="57.6" xlink:href="#mc7d3ce28e4" y="51.08542"/>
      </g>
     </g>
     <g id="text_18">
      <!-- 0.0200 -->
      <g transform="translate(15.609375 54.884639)scale(0.1 -0.1)">
       <use xlink:href="#DejaVuSans-48"/>
       <use x="63.623047" xlink:href="#DejaVuSans-46"/>
       <use x="95.410156" xlink:href="#DejaVuSans-48"/>
       <use x="159.033203" xlink:href="#DejaVuSans-50"/>
       <use x="222.65625" xlink:href="#DejaVuSans-48"/>
       <use x="286.279297" xlink:href="#DejaVuSans-48"/>
      </g>
     </g>
    </g>
    <g id="text_19">
     <!-- $|\psi(x)|^2$ -->
     <defs>
      <path d="M 21 76.421875 
L 21 -23.578125 
L 12.703125 -23.578125 
L 12.703125 76.421875 
z
" id="DejaVuSans-124"/>
      <path d="M 24.859375 -1.21875 
Q 13.921875 0.59375 9.625 5.328125 
Q 4.34375 11.140625 6.640625 23 
L 12.796875 54.6875 
L 21.875 54.6875 
L 15.765625 23.34375 
Q 14.0625 14.40625 17.484375 10.6875 
Q 20.515625 7.46875 26.421875 6.78125 
L 35.6875 54.6875 
L 44.625 54.6875 
L 35.359375 6.84375 
Q 41.890625 7.515625 45.75 10.75 
Q 50.734375 14.84375 52.390625 23.390625 
L 58.453125 54.6875 
L 67.53125 54.6875 
L 61.375 23.046875 
Q 58.984375 10.75 51.5625 5.375 
Q 44.875 0.53125 33.796875 -1.171875 
L 29.984375 -20.796875 
L 21.046875 -20.796875 
z
" id="DejaVuSans-Oblique-968"/>
     </defs>
     <g transform="translate(9.209375 190.478)rotate(-90)scale(0.1 -0.1)">
      <use transform="translate(0 0.765625)" xlink:href="#DejaVuSans-124"/>
      <use transform="translate(33.691406 0.765625)" xlink:href="#DejaVuSans-Oblique-968"/>
      <use transform="translate(99.658203 0.765625)" xlink:href="#DejaVuSans-40"/>
      <use transform="translate(138.671875 0.765625)" xlink:href="#DejaVuSans-Oblique-120"/>
      <use transform="translate(197.851562 0.765625)" xlink:href="#DejaVuSans-41"/>
      <use transform="translate(236.865234 0.765625)" xlink:href="#DejaVuSans-124"/>
      <use transform="translate(271.513672 39.046875)scale(0.7)" xlink:href="#DejaVuSans-50"/>
     </g>
    </g>
   </g>
   <g id="line2d_17">
    <path clip-path="url(#p65b8660108)" d="M 73.832727 295.487962 
L 77.112066 294.785981 
L 80.391405 293.61903 
L 83.670744 291.991626 
L 86.950083 289.910068 
L 90.229421 287.382409 
L 93.50876 284.418433 
L 96.788099 281.029609 
L 100.067438 277.22905 
L 103.346777 273.031464 
L 106.626116 268.453095 
L 109.905455 263.511659 
L 113.184793 258.226276 
L 116.464132 252.6174 
L 119.743471 246.706733 
L 123.02281 240.517148 
L 126.302149 234.072593 
L 129.581488 227.398005 
L 132.860826 220.519211 
L 136.140165 213.462826 
L 139.419504 206.256154 
L 142.698843 198.927078 
L 145.978182 191.503955 
L 149.257521 184.015507 
L 152.53686 176.490707 
L 155.816198 168.958668 
L 159.095537 161.448533 
L 162.374876 153.989356 
L 165.654215 146.609997 
L 168.933554 139.339006 
L 172.212893 132.204513 
L 175.492231 125.234119 
L 178.77157 118.454792 
L 182.050909 111.892757 
L 185.330248 105.573402 
L 188.609587 99.521174 
L 191.888926 93.759486 
L 195.168264 88.310626 
L 198.447603 83.195675 
L 201.726942 78.434419 
L 205.006281 74.045276 
L 208.28562 70.045224 
L 211.564959 66.449738 
L 214.844298 63.272725 
L 218.123636 60.526474 
L 221.402975 58.221608 
L 224.682314 56.367041 
L 227.961653 54.969947 
L 231.240992 54.03573 
L 234.520331 53.568 
L 237.799669 53.568567 
L 241.079008 54.037426 
L 244.358347 54.972763 
L 247.637686 56.370957 
L 250.917025 58.226599 
L 254.196364 60.532508 
L 257.475702 63.279763 
L 260.755041 66.457735 
L 264.03438 70.054128 
L 267.313719 74.05503 
L 270.593058 78.444961 
L 273.872397 83.206939 
L 277.151736 88.32254 
L 280.431074 93.771976 
L 283.710413 99.534162 
L 286.989752 105.586809 
L 290.269091 111.906501 
L 293.54843 118.468789 
L 296.827769 125.248288 
L 300.107107 132.218769 
L 303.386446 139.353268 
L 306.665785 146.624184 
L 309.945124 154.003389 
L 313.224463 161.462336 
L 316.503802 168.97217 
L 319.78314 176.503839 
L 323.062479 184.028206 
L 326.341818 191.516162 
L 329.621157 198.938739 
L 332.900496 206.267223 
L 336.179835 213.473263 
L 339.459174 220.528981 
L 342.738512 227.407081 
L 346.017851 234.080955 
L 349.29719 240.524784 
L 352.576529 246.71364 
L 355.855868 252.623578 
L 359.135207 258.231737 
L 362.414545 263.516419 
L 365.693884 268.45718 
L 368.973223 273.034906 
L 372.252562 277.231887 
L 375.531901 281.031885 
L 378.81124 284.4202 
L 382.090579 287.383723 
L 385.369917 289.91099 
L 388.649256 291.992221 
L 391.928595 293.619367 
L 395.207934 294.786131 
L 398.487273 295.488 
" style="fill:none;stroke:#1f77b4;stroke-linecap:square;stroke-width:1.5;"/>
   </g>
   <g id="line2d_18">
    <path clip-path="url(#p65b8660108)" d="M 73.832727 295.488 
L 77.112066 294.78613 
L 80.391405 293.619364 
L 83.670744 291.992217 
L 86.950083 289.910982 
L 90.229421 287.383713 
L 93.50876 284.420187 
L 96.788099 281.031868 
L 100.067438 277.231866 
L 103.346777 273.034881 
L 106.626116 268.457151 
L 109.905455 263.516386 
L 113.184793 258.231699 
L 116.464132 252.623537 
L 119.743471 246.713595 
L 123.02281 240.524737 
L 126.302149 234.080905 
L 129.581488 227.407029 
L 132.860826 220.528927 
L 136.140165 213.473208 
L 139.419504 206.267168 
L 142.698843 198.938684 
L 145.978182 191.516108 
L 149.257521 184.028154 
L 152.53686 176.50379 
L 155.816198 168.972125 
L 159.095537 161.462295 
L 162.374876 154.003352 
L 165.654215 146.624153 
L 168.933554 139.353243 
L 172.212893 132.218751 
L 175.492231 125.248277 
L 178.77157 118.468786 
L 182.050909 111.906505 
L 185.330248 105.586821 
L 188.609587 99.534183 
L 191.888926 93.772004 
L 195.168264 88.322577 
L 198.447603 83.206983 
L 201.726942 78.445013 
L 205.006281 74.055089 
L 208.28562 70.054195 
L 211.564959 66.457807 
L 214.844298 63.279841 
L 218.123636 60.532592 
L 221.402975 58.226687 
L 224.682314 56.371049 
L 227.961653 54.972857 
L 231.240992 54.037522 
L 234.520331 53.568663 
L 237.799669 53.568097 
L 241.079008 54.035825 
L 244.358347 54.970041 
L 247.637686 56.367132 
L 250.917025 58.221695 
L 254.196364 60.526557 
L 257.475702 63.272803 
L 260.755041 66.449811 
L 264.03438 70.045291 
L 267.313719 74.045335 
L 270.593058 78.434471 
L 273.872397 83.19572 
L 277.151736 88.310663 
L 280.431074 93.759514 
L 283.710413 99.521194 
L 286.989752 105.573415 
L 290.269091 111.892761 
L 293.54843 118.454788 
L 296.827769 125.234108 
L 300.107107 132.204495 
L 303.386446 139.338982 
L 306.665785 146.609966 
L 309.945124 153.98932 
L 313.224463 161.448491 
L 316.503802 168.958623 
L 319.78314 176.490658 
L 323.062479 184.015455 
L 326.341818 191.503902 
L 329.621157 198.927023 
L 332.900496 206.256099 
L 336.179835 213.462771 
L 339.459174 220.519157 
L 342.738512 227.397953 
L 346.017851 234.072543 
L 349.29719 240.5171 
L 352.576529 246.706689 
L 355.855868 252.617359 
L 359.135207 258.226239 
L 362.414545 263.511625 
L 365.693884 268.453066 
L 368.973223 273.031439 
L 372.252562 277.229029 
L 375.531901 281.029591 
L 378.81124 284.418419 
L 382.090579 287.382399 
L 385.369917 289.91006 
L 388.649256 291.991621 
L 391.928595 293.619027 
L 395.207934 294.785979 
L 398.487273 295.487962 
" style="fill:none;stroke:#ff7f0e;stroke-linecap:square;stroke-width:1.5;"/>
   </g>
   <g id="patch_3">
    <path d="M 57.6 307.584 
L 57.6 41.472 
" style="fill:none;stroke:#000000;stroke-linecap:square;stroke-linejoin:miter;stroke-width:0.8;"/>
   </g>
   <g id="patch_4">
    <path d="M 414.72 307.584 
L 414.72 41.472 
" style="fill:none;stroke:#000000;stroke-linecap:square;stroke-linejoin:miter;stroke-width:0.8;"/>
   </g>
   <g id="patch_5">
    <path d="M 57.6 307.584 
L 414.72 307.584 
" style="fill:none;stroke:#000000;stroke-linecap:square;stroke-linejoin:miter;stroke-width:0.8;"/>
   </g>
   <g id="patch_6">
    <path d="M 57.6 41.472 
L 414.72 41.472 
" style="fill:none;stroke:#000000;stroke-linecap:square;stroke-linejoin:miter;stroke-width:0.8;"/>
   </g>
   <g id="legend_1">
    <g id="patch_7">
     <path d="M 338.92 86.472 
L 407.72 86.472 
Q 409.72 86.472 409.72 84.472 
L 409.72 48.472 
Q 409.72 46.472 407.72 46.472 
L 338.92 46.472 
Q 336.92 46.472 336.92 48.472 
L 336.92 84.472 
Q 336.92 86.472 338.92 86.472 
z
" style="fill:#ffffff;opacity:0.8;stroke:#cccccc;stroke-linejoin:miter;"/>
    </g>
    <g id="line2d_19">
     <path d="M 340.92 56.472 
L 360.92 56.472 
" style="fill:none;stroke:#1f77b4;stroke-linecap:square;stroke-width:1.5;"/>
    </g>
    <g id="line2d_20"/>
    <g id="text_20">
     <!-- $|1, -\frac{1}{2}\rangle$ -->
     <defs>
      <path d="M 11.71875 12.40625 
L 22.015625 12.40625 
L 22.015625 4 
L 14.015625 -11.625 
L 7.71875 -11.625 
L 11.71875 4 
z
" id="DejaVuSans-44"/>
      <path d="M 30.078125 31.34375 
L 16.3125 -13.1875 
L 8.015625 -13.1875 
L 21.78125 31.34375 
L 8.015625 75.875 
L 16.3125 75.875 
z
" id="DejaVuSans-10217"/>
     </defs>
     <g transform="translate(368.92 59.972)scale(0.1 -0.1)">
      <use transform="translate(0 0.16875)" xlink:href="#DejaVuSans-124"/>
      <use transform="translate(33.691406 0.16875)" xlink:href="#DejaVuSans-49"/>
      <use transform="translate(97.314453 0.16875)" xlink:href="#DejaVuSans-44"/>
      <use transform="translate(168.066406 0.16875)" xlink:href="#DejaVuSans-8722"/>
      <use transform="translate(271.337891 43.965625)scale(0.7)" xlink:href="#DejaVuSans-49"/>
      <use transform="translate(271.337891 -39.2375)scale(0.7)" xlink:href="#DejaVuSans-50"/>
      <use transform="translate(328.374023 0.16875)" xlink:href="#DejaVuSans-10217"/>
      <path d="M 271.337891 18.965625 
L 271.337891 25.215625 
L 315.874023 25.215625 
L 315.874023 18.965625 
L 271.337891 18.965625 
z
"/>
     </g>
    </g>
    <g id="line2d_21">
     <path d="M 340.92 74.972 
L 360.92 74.972 
" style="fill:none;stroke:#ff7f0e;stroke-linecap:square;stroke-width:1.5;"/>
    </g>
    <g id="line2d_22"/>
    <g id="text_21">
     <!-- $|1, +\frac{1}{2}\rangle$ -->
     <defs>
      <path d="M 46 62.703125 
L 46 35.5 
L 73.1875 35.5 
L 73.1875 27.203125 
L 46 27.203125 
L 46 0 
L 37.796875 0 
L 37.796875 27.203125 
L 10.59375 27.203125 
L 10.59375 35.5 
L 37.796875 35.5 
L 37.796875 62.703125 
z
" id="DejaVuSans-43"/>
     </defs>
     <g transform="translate(368.92 78.472)scale(0.1 -0.1)">
      <use transform="translate(0 0.16875)" xlink:href="#DejaVuSans-124"/>
      <use transform="translate(33.691406 0.16875)" xlink:href="#DejaVuSans-49"/>
      <use transform="translate(97.314453 0.16875)" xlink:href="#DejaVuSans-44"/>
      <use transform="translate(168.066406 0.16875)" xlink:href="#DejaVuSans-43"/>
      <use transform="translate(271.337891 43.965625)scale(0.7)" xlink:href="#DejaVuSans-49"/>
      <use transform="translate(271.337891 -39.2375)scale(0.7)" xlink:href="#DejaVuSans-50"/>
      <use transform="translate(328.374023 0.16875)" xlink:href="#DejaVuSans-10217"/>
      <path d="M 271.337891 18.965625 
L 271.337891 25.215625 
L 315.874023 25.215625 
L 315.874023 18.965625 
L 271.337891 18.965625 
z
"/>
     </g>
    </g>
   </g>
  </g>
 </g>
 <defs>
  <clipPath id="p65b8660108">
   <rect height="266.112" width="357.12" x="57.6" y="41.472"/>
  </clipPath>
 </defs>
</svg>
